<?xml version="1.0" encoding="UTF-8"?>
<svg width="182px" height="182px" viewBox="0 0 182 182" version="1.1" xmlns="http://www.w3.org/2000/svg" xmlns:xlink="http://www.w3.org/1999/xlink">
    <!-- Generator: Sketch 60.1 (88133) - https://sketch.com -->
    <title>design</title>
    <desc>Created with Sketch.</desc>
    <g id="design" stroke="none" stroke-width="1" fill="none" fill-rule="evenodd">
        <g id="noun_design_683440" transform="translate(10.000000, 10.000000)" fill="#C53849" fill-rule="nonzero">
            <path d="M43.0631553,35.5 C46.8160938,31.7425419 46.8160938,25.6521917 43.0631553,21.8947336 L32.1272156,10.8666026 C31.4426902,10.1907156 31.0572512,9.26855757 31.0570319,8.30620189 C31.0299009,6.45086715 28.6057845,0.352804859 30.4500707,0.162247758 C39.887512,-0.768853022 49.2783054,2.33733881 56.3025007,8.71345351 C63.3266959,15.0895682 67.3292109,24.1409642 67.3212435,33.6315377 C67.3212435,34.5017393 67.3212435,35.3050022 67.2209138,36.2421424 C67.2209138,36.7664946 67.2209138,37.2908468 67.2209138,37.815199 C67.2242243,42.0195849 68.5460392,46.1168908 71,49.5294505 L63.1910033,57.2608565 L57.0876119,63.3690019 L49.462553,71 C45.6141986,68.2312595 40.9107672,66.91517 36.1855864,67.2849088 C26.8609802,68.0120969 17.6558666,64.8140627 10.7872375,58.4610321 C3.91860844,52.1080015 0.00899420199,43.1757741 0,33.8156188 C0,32.6999758 0.0557387345,31.5843328 0.167216203,30.4686898 C0.329958158,29.0864548 5.08529704,32.4481741 6.39920594,31.9920458 C7.71311485,31.5359175 9.17193544,31.8714642 10.1550065,32.8559261 L21.0909462,43.8003839 C24.8454798,47.5562456 30.9310899,47.5562456 34.6856235,43.8003839 L43.0631553,35.5 Z M162,128.218661 C161.990989,118.854091 158.073994,109.917651 151.1924,103.561624 C144.310805,97.2055973 135.088315,94.0060548 125.746107,94.7335858 C121.009971,95.0986677 116.297467,93.7759719 112.444077,91 L104.737612,98.7183097 L98.6226994,104.829336 L91,112.44719 C93.4585931,115.861359 94.7829032,119.960598 94.7862199,124.166967 C94.7862199,124.691566 94.7862199,125.216166 94.7862199,125.740765 C94.7862199,126.611377 94.6857008,127.415019 94.6857008,128.352601 C94.6777184,137.84765 98.6877889,146.903315 105.725244,153.282437 C112.762698,159.661559 122.171219,162.769216 131.626475,161.837676 C133.00576,161.657984 134.161546,160.707533 134.603543,159.38951 C135.04554,158.071486 134.69626,156.616955 133.70387,155.642937 L122.747286,144.693317 C120.936491,142.887352 119.918886,140.435728 119.918886,137.879105 C119.918886,135.322481 120.936491,132.870857 122.747286,131.064892 L131.123879,122.693623 C134.8855,118.93599 140.982598,118.93599 144.744219,122.693623 L155.717555,133.643243 C156.701323,134.6386 158.16958,134.981014 159.492576,134.52362 C160.815572,134.066225 161.75823,132.890295 161.916234,131.500198 C161.94974,130.411933 162,129.306926 162,128.218661 Z M153.563394,37.885356 L46.0505005,145.331698 C44.4534099,146.90521 42.4847223,148.049796 40.3271276,148.659241 L12.2759456,156.778444 C10.2828007,157.350447 8.136225,156.796287 6.66903676,155.330963 L6.66903676,155.330963 C5.20371334,153.863775 4.64955284,151.717199 5.22155584,149.724054 L13.290846,121.606322 C13.9002908,119.448727 15.0448766,117.480039 16.6183884,115.882949 L124.114644,8.43660623 C126.300798,6.23691686 129.273994,5 132.375268,5 C135.476542,5 138.449738,6.23691686 140.635892,8.43660623 L153.563394,21.3641083 C155.763083,23.5502618 157,26.5234581 157,29.6247321 C157,32.7260062 155.763083,35.6992025 153.563394,37.885356 L153.563394,37.885356 Z" id="Shape"></path>
        </g>
    </g>
</svg>