<?xml version="1.0" encoding="UTF-8"?>
<svg width="182px" height="182px" viewBox="0 0 182 182" version="1.1" xmlns="http://www.w3.org/2000/svg" xmlns:xlink="http://www.w3.org/1999/xlink">
    <!-- Generator: Sketch 60.1 (88133) - https://sketch.com -->
    <title>link</title>
    <desc>Created with Sketch.</desc>
    <g id="link" stroke="none" stroke-width="1" fill="none" fill-rule="evenodd">
        <g id="noun_link_887271" transform="translate(10.000000, 6.000000)" fill="#C53849" fill-rule="nonzero">
            <g id="Group">
                <path d="M70.5975071,123.179276 C70.3368534,123.468163 70.081866,123.745722 69.8155458,124.006287 C69.6738862,124.159227 69.5492257,124.329161 69.4018996,124.49343 L56.1878867,138.93213 C49.7112072,146.012701 39.3927177,146.811389 31.2161222,139.328642 L31.0857953,139.209688 C22.9148663,131.732606 22.8015385,121.394972 29.2782181,114.308737 L42.4978974,99.8700365 C42.6735554,99.6831094 42.8548797,99.4961823 43.0418705,99.3035908 C43.2515268,99.0600192 43.4611831,98.8107831 43.6935049,98.5728759 L67.1183459,72.963867 C51.7454399,67.0501742 34.7406145,69.627502 24.2691326,81.0583757 L8.92455845,97.8364965 C-5.32073675,113.396759 -2.14189403,139.430602 15.8318834,155.868856 L15.973543,155.993474 C33.9416541,172.426063 60.1770227,173.292724 74.4166515,157.738126 L89.7612257,140.960006 C100.210042,129.557454 101.269656,112.428137 93.9996826,97.6212471 L70.5975071,123.179276 Z" id="Path"></path>
                <path d="M146.731074,12.8469878 C128.768629,-3.57993665 102.47093,-4.36729613 88.2313014,11.1816376 L72.8867272,27.9484295 C62.4209117,39.390632 61.3669638,56.5482715 68.6256047,71.326839 L93.0590625,44.6245901 C93.1157264,44.562281 93.1780566,44.5169654 93.2233877,44.4546564 C93.2233877,44.4546564 93.2347205,44.437663 93.2460533,44.4319985 L106.460066,29.9876339 C112.948078,22.907063 123.425227,21.927112 131.726483,29.517484 C139.903078,37.0002313 139.852081,47.5247919 133.375401,54.6110273 L120.495705,68.6815378 C120.320047,68.8684648 120.138723,69.0553919 119.974398,69.242319 L95.5352733,95.944568 C110.908179,101.858261 127.918671,99.2865974 138.37882,87.8557238 L153.729061,71.0945963 C167.96869,55.5286692 164.846511,29.4155238 146.731074,12.8469878 Z" id="Path"></path>
                <path d="M48.0112913,120.137463 L48.7139232,120.777546 C54.0403263,125.643315 62.1545915,125.235474 67.0276838,119.910884 L116.398908,65.9795919 C121.255001,60.660667 120.937683,52.549165 115.599947,47.6833967 L114.902982,47.0433131 C109.587911,42.1888737 101.490645,42.5740567 96.6175531,47.8929816 L47.2576619,101.841267 C42.3902361,107.160192 42.6962209,115.283023 48.0112913,120.137463 Z" id="Path"></path>
            </g>
        </g>
    </g>
</svg>