<?xml version="1.0" encoding="UTF-8"?>
<svg width="180px" height="93px" viewBox="0 0 180 93" version="1.1" xmlns="http://www.w3.org/2000/svg" xmlns:xlink="http://www.w3.org/1999/xlink">
    <!-- Generator: Sketch 60.1 (88133) - https://sketch.com -->
    <title>Logo</title>
    <desc>Created with Sketch.</desc>
    <defs>
        <filter x="-64.7%" y="-88.2%" width="229.4%" height="276.3%" filterUnits="objectBoundingBox" id="filter-1">
            <feGaussianBlur stdDeviation="8" in="SourceGraphic"></feGaussianBlur>
        </filter>
        <filter x="-87.5%" y="-87.5%" width="275.0%" height="275.0%" filterUnits="objectBoundingBox" id="filter-2">
            <feGaussianBlur stdDeviation="8" in="SourceGraphic"></feGaussianBlur>
        </filter>
        <filter x="-87.5%" y="-87.5%" width="275.0%" height="275.0%" filterUnits="objectBoundingBox" id="filter-3">
            <feGaussianBlur stdDeviation="8" in="SourceGraphic"></feGaussianBlur>
        </filter>
        <filter x="-87.5%" y="-87.5%" width="275.0%" height="275.0%" filterUnits="objectBoundingBox" id="filter-4">
            <feGaussianBlur stdDeviation="8" in="SourceGraphic"></feGaussianBlur>
        </filter>
        <filter x="-87.5%" y="-87.5%" width="275.0%" height="275.0%" filterUnits="objectBoundingBox" id="filter-5">
            <feGaussianBlur stdDeviation="8" in="SourceGraphic"></feGaussianBlur>
        </filter>
        <filter x="-64.2%" y="-87.5%" width="228.3%" height="275.0%" filterUnits="objectBoundingBox" id="filter-6">
            <feGaussianBlur stdDeviation="8" in="SourceGraphic"></feGaussianBlur>
        </filter>
    </defs>
    <g id="Page-1" stroke="none" stroke-width="1" fill="none" fill-rule="evenodd">
        <g id="splashScreen" transform="translate(-410.000000, -185.000000)" stroke="#D7D6D7">
            <g id="LogoSlogan" transform="translate(421.000000, 204.000000)">
                <g id="Logo" transform="translate(8.000000, -0.000000)">
                    <polygon id="Path" points="0 -1.77635684e-15 0 27.7904991 12.9335698 27.7904991 12.9335698 13.8952496 25.0425504 27.7904991 37.861537 27.7904991 37.861537 -1.77635684e-15 25.0425504 -1.77635684e-15 25.0425504 13.8952496 12.9335698 -1.77635684e-15"></polygon>
                    <path d="M42.7100562,0.074176031 C58.1740292,0.074176031 70.7100562,12.610203 70.7100562,28.074176 L70.7100562,28.074176 L56.7100562,28.074176 C56.7100562,20.3421895 50.4420427,14.074176 42.7100562,14.074176 Z" id="Combined-Shape"></path>
                    <path d="M42.7100562,28.074176 C58.1740292,28.074176 70.7100562,40.610203 70.7100562,56.074176 L70.7100562,56.074176 L56.7100562,56.074176 C56.7100562,48.3421895 50.4420427,42.074176 42.7100562,42.074176 Z" id="Combined-Shape-Copy-2" transform="translate(56.710056, 42.074176) rotate(90.000000) translate(-56.710056, -42.074176) "></path>
                    <path d="M115,28 C130.463973,28 143,40.536027 143,56 L143,56 L129,56 C129,48.2680135 122.731986,42 115,42 Z" id="Combined-Shape-Copy-3" transform="translate(129.000000, 42.000000) rotate(90.000000) translate(-129.000000, -42.000000) "></path>
                    <path d="M113,0 C128.463973,-2.84068575e-15 141,12.536027 141,28 L141,28 L127,28 C127,20.2680135 120.731986,14 113,14 Z" id="Combined-Shape-Copy" transform="translate(127.000000, 14.000000) rotate(-90.000000) translate(-127.000000, -14.000000) "></path>
                    <polygon id="Path-3" points="71 0.0676624122 71 13.962912 83.632966 14 83.632966 28 97.3276754 28 97.3276754 14 109.191411 14 109.191411 0"></polygon>
                    <polygon id="Path-Copy" filter="url(#filter-1)" points="0 -1.77635684e-15 0 27.7904991 12.9335698 27.7904991 12.9335698 13.8952496 25.0425504 27.7904991 37.861537 27.7904991 37.861537 -1.77635684e-15 25.0425504 -1.77635684e-15 25.0425504 13.8952496 12.9335698 -1.77635684e-15"></polygon>
                    <path d="M42.7100562,0.074176031 C58.1740292,0.074176031 70.7100562,12.610203 70.7100562,28.074176 L70.7100562,28.074176 L56.7100562,28.074176 C56.7100562,20.3421895 50.4420427,14.074176 42.7100562,14.074176 Z" id="Combined-Shape-Copy-7" filter="url(#filter-2)"></path>
                    <path d="M42.7100562,28.074176 C58.1740292,28.074176 70.7100562,40.610203 70.7100562,56.074176 L70.7100562,56.074176 L56.7100562,56.074176 C56.7100562,48.3421895 50.4420427,42.074176 42.7100562,42.074176 Z" id="Combined-Shape-Copy-6" filter="url(#filter-3)" transform="translate(56.710056, 42.074176) rotate(90.000000) translate(-56.710056, -42.074176) "></path>
                    <path d="M115,28 C130.463973,28 143,40.536027 143,56 L143,56 L129,56 C129,48.2680135 122.731986,42 115,42 Z" id="Combined-Shape-Copy-5" filter="url(#filter-4)" transform="translate(129.000000, 42.000000) rotate(90.000000) translate(-129.000000, -42.000000) "></path>
                    <path d="M113,0 C128.463973,-2.84068575e-15 141,12.536027 141,28 L141,28 L127,28 C127,20.2680135 120.731986,14 113,14 Z" id="Combined-Shape-Copy-4" filter="url(#filter-5)" transform="translate(127.000000, 14.000000) rotate(-90.000000) translate(-127.000000, -14.000000) "></path>
                    <polygon id="Path-3-Copy" filter="url(#filter-6)" points="71 0.0676624122 71 13.962912 83.632966 14 83.632966 28 97.3276754 28 97.3276754 14 109.191411 14 109.191411 0"></polygon>
                </g>
            </g>
        </g>
    </g>
</svg>