<?xml version="1.0" encoding="UTF-8"?>
<svg width="182px" height="182px" viewBox="0 0 182 182" version="1.1" xmlns="http://www.w3.org/2000/svg" xmlns:xlink="http://www.w3.org/1999/xlink">
    <!-- Generator: Sketch 60.1 (88133) - https://sketch.com -->
    <title>save</title>
    <desc>Created with Sketch.</desc>
    <g id="save" stroke="none" stroke-width="1" fill="none" fill-rule="evenodd">
        <g id="noun_Save_2007795" transform="translate(9.000000, 8.000000)" fill="#C53849" fill-rule="nonzero">
            <path d="M137.989324,0 L9.98220641,0 C4.11032028,0 0,4.125 0,10.0178571 L0,155.571429 C0,160.875 4.11032028,165 9.98220641,165 L155.017794,165 C160.302491,165 165,160.875 165,154.982143 L165,21.2142857 L137.989324,0 Z M44.0391459,12.9642857 C44.0391459,8.83928571 46.975089,5.89285714 51.0854093,5.89285714 L116.850534,5.89285714 C120.960854,5.89285714 123.896797,8.83928571 123.896797,12.9642857 L123.896797,45.375 C123.896797,49.5 120.960854,52.4464286 116.850534,52.4464286 L51.0854093,52.4464286 C46.975089,52.4464286 44.0391459,49.5 44.0391459,45.375 L44.0391459,12.9642857 Z M142.686833,152.035714 C142.686833,156.160714 139.75089,159.107143 135.640569,159.107143 L32.2953737,159.107143 C28.1850534,159.107143 25.2491103,156.160714 25.2491103,152.035714 L25.2491103,107.25 C25.2491103,103.125 28.1850534,100.178571 32.2953737,100.178571 L135.640569,100.178571 C139.75089,100.178571 142.686833,103.125 142.686833,107.25 L142.686833,152.035714 Z" id="Shape"></path>
            <path d="M115.453085,49 L107.435926,49 C105.145309,49 104,47.2352941 104,45.4705882 L104,12.5294118 C104,10.1764706 105.717963,9 107.435926,9 L115.453085,9 C117.743703,9 118.889011,10.7647059 118.889011,12.5294118 L118.889011,45.4705882 C119.461665,47.2352941 117.743703,49 115.453085,49 Z" id="Path"></path>
        </g>
    </g>
</svg>