<?xml version="1.0" encoding="UTF-8"?>
<svg width="182px" height="182px" viewBox="0 0 182 182" version="1.1" xmlns="http://www.w3.org/2000/svg" xmlns:xlink="http://www.w3.org/1999/xlink">
    <!-- Generator: Sketch 60.1 (88133) - https://sketch.com -->
    <title>secure</title>
    <desc>Created with Sketch.</desc>
    <g id="secure" stroke="none" stroke-width="1" fill="none" fill-rule="evenodd">
        <g id="noun_Privacy_3427755" transform="translate(22.000000, 10.000000)" fill-rule="nonzero">
            <g id="Group">
                <path d="M64.1684554,160.685654 C17.4892277,138.7215 -1.07621782,86.6211923 0.0478242574,37.7252308 C0.105626238,35.1983077 1.8620495,33.0327692 4.31381683,32.4643846 C17.4789059,29.4099231 27.7931188,19.8844615 27.6919653,5.55334615 C27.6792351,2.53003846 30.1874282,0 33.197604,0 L105.824072,0 C108.833559,0 111.341408,2.529 111.329366,5.55196154 C111.037948,19.0346538 121.339087,30.2517692 134.360359,32.3958462 C136.984844,32.8278462 138.926371,35.0826923 138.974196,37.7532692 C139.840537,86.0199231 118.719418,136.264154 75.1143614,160.227346 C73.2788045,161.236038 69.9280099,163.395346 64.1684554,160.685654 Z" id="Shape" fill="#C53849"></path>
                <g transform="translate(29.933168, 36.000000)" fill="#272930">
                    <path d="M39.5668317,80.0799231 C17.7496807,80.0799231 0,62.154 0,40.1199231 C0,18.0858462 17.7496807,0.159923077 39.5668317,0.159923077 C61.3839827,0.159923077 79.1336634,18.0858462 79.1336634,40.1199231 C79.1336634,62.154 61.3839827,80.0799231 39.5668317,80.0799231 Z M39.5668317,11.2368462 C23.8206089,11.2368462 11.009901,24.1937308 11.009901,40.1199231 C11.009901,56.0461154 23.8206089,69.003 39.5668317,69.003 C55.3130545,69.003 68.1237624,56.0461154 68.1237624,40.1199231 C68.1237624,24.1937308 55.3130545,11.2368462 39.5668317,11.2368462 Z" id="Shape"></path>
                    <path d="M29.8106832,53.8068462 L19.8814728,42.1494231 L28.2417723,34.9418077 L34.2583391,42.0054231 L51.372198,24.3931154 L59.2449653,32.1365769 L37.9273886,54.0747692 C36.8897054,55.1423077 32.9151312,56.6539615 29.8106832,53.8068462 Z" id="Path"></path>
                </g>
            </g>
        </g>
    </g>
</svg>