<?xml version="1.0" encoding="UTF-8"?>
<svg width="182px" height="182px" viewBox="0 0 182 182" version="1.1" xmlns="http://www.w3.org/2000/svg" xmlns:xlink="http://www.w3.org/1999/xlink">
    <!-- Generator: Sketch 60.1 (88133) - https://sketch.com -->
    <title>simple</title>
    <desc>Created with Sketch.</desc>
    <g id="simple" stroke="none" stroke-width="1" fill="none" fill-rule="evenodd">
        <g id="noun_convenient_3202000" transform="translate(34.000000, 5.000000)" fill="#C53849" fill-rule="nonzero">
            <g id="Group">
                <g>
                    <path d="M49.7734375,96.0510417 L49.7734375,89.5635417 C49.7734375,80.7333333 56.9609375,73.7052083 65.5859375,73.7052083 C69.8984375,73.7052083 73.8515625,75.3270833 76.90625,78.390625 C78.34375,79.8322917 79.6015625,81.634375 80.3203125,83.6166667 C89.6640625,74.9666667 95.59375,62.3520833 95.59375,48.4760417 C95.59375,22.165625 74.390625,0.901041667 48.15625,0.901041667 C21.921875,0.901041667 0.71875,22.165625 0.71875,48.4760417 C0.71875,74.7864583 21.921875,96.0510417 48.15625,96.0510417 C48.6953125,96.0510417 49.234375,96.0510417 49.7734375,96.0510417 Z M43.3046875,65.5958333 C41.8671875,65.5958333 40.25,65.0552083 39.171875,63.9739583 L26.59375,51.359375 C24.2578125,49.0166667 24.2578125,45.4125 26.59375,43.0697917 C28.9296875,40.7270833 32.5234375,40.7270833 34.859375,43.0697917 L43.125,51.359375 L61.2734375,33.1583333 C63.609375,30.815625 67.203125,30.815625 69.5390625,33.1583333 C71.875,35.5010417 71.875,39.1052083 69.5390625,41.4479167 L47.2578125,63.9739583 C46.1796875,65.0552083 44.7421875,65.5958333 43.3046875,65.5958333 Z" id="Shape"></path>
                    <path d="M114.28125,126.866667 C114.28125,122.721875 110.867188,119.478125 106.914063,119.478125 C104.21875,119.478125 101.882813,120.919792 100.625,122.902083 L100.625,122.721875 C100.625,118.577083 97.2109375,115.333333 93.2578125,115.333333 C90.5625,115.333333 88.2265625,116.775 86.96875,118.757292 L86.96875,118.577083 C86.96875,114.432292 83.5546875,111.188542 79.6015625,111.188542 C76.90625,111.188542 74.5703125,112.630208 73.3125,114.6125 L73.3125,89.5635417 C73.3125,87.58125 72.59375,85.5989583 71.15625,84.3375 C69.71875,82.8958333 67.921875,82.175 65.9453125,82.175 C65.9453125,82.175 65.9453125,82.175 65.9453125,82.175 C61.8125,82.175 58.578125,85.5989583 58.578125,89.5635417 L58.578125,135.696875 C58.578125,136.057292 58.3984375,136.417708 57.859375,136.597917 C57.5,136.778125 56.9609375,136.597917 56.78125,136.417708 L49.234375,128.848958 C46.71875,126.326042 42.5859375,125.965625 39.7109375,127.947917 C37.9140625,129.209375 36.8359375,131.011458 36.4765625,133.173958 C36.1171875,135.336458 36.8359375,137.498958 38.09375,139.120833 L56.9609375,161.827083 C62.3515625,168.314583 70.078125,171.91875 78.5234375,171.91875 L89.84375,171.91875 C96.3125,171.91875 102.601563,169.395833 107.273438,164.710417 C111.945313,160.025 114.460938,153.897917 114.460938,147.230208 L114.28125,126.866667 Z" id="Path"></path>
                </g>
            </g>
        </g>
    </g>
</svg>