<?xml version="1.0" encoding="UTF-8"?>
<svg width="750px" height="500px" viewBox="0 0 750 500" version="1.1" xmlns="http://www.w3.org/2000/svg" xmlns:xlink="http://www.w3.org/1999/xlink">
    <title>splashScreen Copy</title>
    <defs>
        <filter x="-1.8%" y="-3.1%" width="103.6%" height="106.2%" filterUnits="objectBoundingBox" id="filter-1">
            <feOffset dx="0" dy="2" in="SourceAlpha" result="shadowOffsetOuter1"></feOffset>
            <feGaussianBlur stdDeviation="2" in="shadowOffsetOuter1" result="shadowBlurOuter1"></feGaussianBlur>
            <feColorMatrix values="0 0 0 0 1   0 0 0 0 1   0 0 0 0 1  0 0 0 0.755845717 0" type="matrix" in="shadowBlurOuter1" result="shadowMatrixOuter1"></feColorMatrix>
            <feMerge>
                <feMergeNode in="shadowMatrixOuter1"></feMergeNode>
                <feMergeNode in="SourceGraphic"></feMergeNode>
            </feMerge>
        </filter>
    </defs>
    <g id="splashScreen-Copy" stroke="none" stroke-width="1" fill="none" fill-rule="evenodd">
        <g id="Abstract" transform="translate(375.500000, 250.000000) scale(1, -1) translate(-375.500000, -250.000000) translate(42.000000, 57.000000)" fill-rule="nonzero">
            <g id="Unbenannt-2" filter="url(#filter-1)">
                <path d="M72.650196,370.493836 L75.9164475,366.432845 C75.3380488,364.23991 74.7630525,362.046975 74.1914584,359.85404 C73.9192708,358.746497 73.6266691,357.638954 73.3136533,356.531411 C72.7900536,354.815109 72.5310745,353.089594 72.5379186,351.362877 L72.935993,355.368491 C72.7420593,351.444097 72.8645437,347.61569 73.3851026,343.676529 L72.9564071,345.788244 C73.4463448,343.218744 74.2220795,340.66032 75.2836113,338.112971 C76.8759089,334.598368 78.6655426,331.096071 80.6525123,327.60608 C83.7146232,322.374785 87.4810195,317.180409 91.9414944,312.100478 C97.1498803,306.199159 103.256199,300.406486 110.232503,294.748971 C117.020182,289.211256 124.440698,283.765837 131.891834,278.338876 C138.192978,273.761032 144.688055,269.220106 151.377066,264.716097 C160.389879,258.672605 169.851802,252.691872 180.477326,246.99541 C188.642955,242.639074 197.206659,238.394723 206.168436,234.262357 C218.24336,228.724642 231.165468,223.493348 244.414201,218.332197 L242.270723,219.137012 L254.519167,214.559168 L252.324654,215.367674 C277.774197,206.197218 304.220628,197.415633 331.663946,189.022918 C360.386546,180.265945 389.997158,171.907687 419.15866,163.34638 C445.053911,155.744943 470.591916,148.003218 494.956111,139.759406 C501.760802,137.322812 508.739012,134.951439 515.890742,132.645289 C521.334495,130.895371 526.682982,129.102382 531.936203,127.266321 C539.081128,124.736201 546.015108,122.133475 552.738143,119.458143 C564.540393,114.776459 575.631342,109.866513 585.962046,104.749973 C596.166914,99.7349079 605.376315,94.4645688 613.521043,88.9785605 C618.267791,85.0417968 622.46477,81.0212716 626.096112,76.9321846 C631.784833,71.0868189 637.35107,65.2279165 642.794823,59.3554775 C647.245091,54.6619565 651.549058,49.9536682 655.706724,45.2306127 C657.83153,43.4978323 658.946852,41.6253338 658.983182,39.7298158 C659.221347,38.0315833 659.354038,36.3308895 659.385845,34.6277345 C659.483327,31.3051055 657.870616,27.9086404 655.706724,24.6819985 C653.487579,21.4112747 650.369104,18.2290788 646.397907,15.1829715 C643.539937,12.9678856 640.413181,10.8020237 637.017641,8.68538602 C633.519123,6.41656849 629.540092,4.24914948 625.116236,2.20256776 C623.687583,3.83986272 623.310562,5.57347189 624.013877,7.27142281 C624.347306,11.7458965 624.840646,16.2166783 625.493897,20.6837683 C626.174366,26.265785 626.990929,31.8478016 627.943585,37.4298182 C628.277555,41.3031995 629.200989,45.1669903 630.709692,49.0036424 L632.506131,53.4818079 L631.57729,49.6017156 L633.455385,57.7236975 L632.893998,53.7623854 L633.628905,61.7366949 L639.385673,17.3205295 L624.605885,78.383066 L652.369023,33.1104006 L607.794896,91.1751874 L642.417163,55.6784348 L615.613486,81.4657273 L649.184428,50.3216186 L608.182763,86.4533625 L644.213601,55.7264283 L631.209837,66.2923884 L641.039213,58.4214496 L637.436129,61.112779 L642.794823,57.4209691 C638.879502,60.2298339 634.527747,62.9562891 629.760438,65.5872527 C626.358092,67.4626921 622.82986,69.3085971 619.175741,71.1249676 C611.204046,75.0641288 602.701585,78.8556176 594.056225,82.5954211 C583.114283,87.2840197 572.121305,91.9836938 560.658803,96.5172364 C544.939967,102.730553 528.169807,108.548845 511.175092,114.293301 L513.910577,113.381424 L497.987601,118.631178 L500.712879,117.734068 C482.911808,123.409611 464.828343,128.954709 446.462482,134.369364 C428.089817,139.759406 409.594667,145.046078 391.140346,150.37336 C355.415719,160.662434 320.027925,171.080722 286.793815,182.407195 C235.5647,199.865764 188.979787,219.240383 151.244375,240.77471 C133.253804,250.954037 117.496918,261.627753 104.118489,272.697791 C89.1345594,285.213026 77.1208778,298.337411 70.1596791,311.753448 C64.5764303,322.526149 64.9234696,333.535127 66.454525,344.429658 C68.1284789,356.276676 71.1497617,368.101543 74.3139429,379.90426 C74.3322841,381.324631 74.8432232,382.738559 75.8347913,384.112923 C75.8034876,384.628779 76.4279662,385.121337 77.5291593,385.449358 L78.4988277,384.873436 C79.1469599,383.190799 79.2086844,381.485394 78.6825544,379.797197 C78.3457222,376.655467 77.8251633,373.52112 77.2535693,370.383082 C77.1733513,369.571552 76.8655623,368.765064 76.334936,367.976022 C76.154189,367.637271 75.3489665,367.388948 74.3955992,367.377948 C73.4567417,367.434085 72.7496517,367.7174 72.6910241,368.060933 C72.447764,368.869269 72.4340832,369.684492 72.650196,370.493836 Z" id="Path" fill="#C53849"></path>
                <path d="M76.9681763,369.757332 L73.329309,365.756057 C70.4877216,363.814478 67.3974102,361.929499 64.0583746,360.101117 C61.3707977,358.977559 59.6013003,357.606258 58.947606,356.140445 C57.5218512,354.846496 56.7364913,353.472174 56.627317,352.08011 C54.3967772,345.124727 53.5530316,338.120456 54.1025973,331.121399 C54.5612025,324.727101 56.7834446,318.365228 60.736375,312.130105 C66.6955313,302.772879 75.9766872,293.733097 85.8302492,284.833581 L84.97164,285.571823 C89.2646857,281.995037 93.6088391,278.436707 98.2596386,274.922672 C104.116579,270.493216 110.525483,266.15604 117.200147,261.877923 C129.26061,254.129419 142.433677,246.613711 156.665503,239.36152 C169.176665,232.997868 182.382891,226.822467 196.284182,220.835319 C213.793675,213.301552 232.396873,206.151671 251.480483,199.142057 L245.94041,201.120547 L263.102371,195.000515 L257.449861,196.990079 L274.877582,190.936489 L269.112635,192.933435 C284.77203,187.636544 300.59497,182.420859 317.000538,177.430338 C330.431638,173.342934 344.033097,169.335507 357.804915,165.408055 C392.404819,155.489764 427.85311,145.962742 462.412128,136.033377 C490.184045,128.052974 517.465328,119.851097 543.060057,110.962655 C558.392363,105.628851 572.825174,99.9480731 586.838902,94.1528677 C593.993978,91.1998968 601.149054,88.2173962 608.109921,85.1869098 C620.171335,79.9380041 631.874995,74.545141 641.963653,68.7720829 C651.612784,63.2352625 659.749128,57.3293207 663.899072,50.9545948 C668.206124,44.0908261 668.024137,36.9590165 663.367552,30.1250763 C661.092473,26.7774108 657.819511,23.5286341 653.605984,20.4356406 C650.546337,18.161853 647.231152,15.9372816 643.660428,13.7619264 C639.767777,11.450765 635.419186,9.24386085 630.648411,7.15834522 C627.74814,8.36897455 625.703412,9.81536686 624.689255,11.3737112 C619.012894,16.8957667 613.561408,22.4436608 608.334795,28.0173934 C602.958266,33.5788219 597.79639,39.1660889 592.849166,44.7791944 C590.98789,46.2311654 590.131962,47.8247716 590.355111,49.4227411 C591.59055,52.5014324 592.378688,55.601375 592.716286,58.7098346 C592.905392,59.8284614 592.905392,60.9502121 592.716286,62.068839 C592.714934,63.6787201 592.300899,65.2850997 591.47948,66.8674167 L592.266538,65.5459622 L589.455615,69.5250905 L590.406218,68.2073272 C588.432228,70.3857065 586.066008,72.5151555 583.322693,74.5820531 C580.958111,76.2750898 578.395912,77.9250623 575.636097,79.5319706 C569.022964,83.3160975 561.672129,86.9253867 553.639349,90.3324616 C534.218428,98.7115165 513.172282,106.625479 492.494112,114.605882 C456.391642,128.540214 416.435653,141.112487 376.285454,153.489127 C353.481204,160.502432 330.492967,167.475135 307.801154,174.562265 C285.109341,181.649395 262.478857,188.825115 240.890971,196.358882 C222.778406,202.68193 205.197362,209.200614 187.953629,215.833725 C168.931348,223.157092 150.287264,230.635491 132.450681,238.350128 C114.900301,245.920807 98.0041001,253.772018 83.6837263,262.195368 C70.5286078,269.946916 58.4671937,277.919938 47.2439457,286.044299 C35.0117259,294.896735 24.0165782,303.965133 14.2999309,313.215322 C10.1010896,317.088074 6.4942722,321.041162 3.49576589,325.056735 C1.17391106,328.347615 0,331.73035 0,335.126366 C0,337.820683 0.486022708,340.51214 1.44123689,343.184285 C2.37139678,345.841959 3.0869044,348.495942 3.84329816,351.160998 C4.006329,352.743691 4.80867147,354.309297 6.22491636,355.808236 C7.0017532,357.752275 10.1193221,359.178314 15.577623,360.086353 L16.8859798,360.422253 C31.8630578,362.185843 46.5867954,364.218544 61.002135,366.512756 L59.9799812,366.217458 L72.1231676,370.720739 C72.9204475,371.012345 75.0771919,371.274421 76.1504533,371.045566 C77.2237147,370.816711 77.3565947,370.141219 76.9681763,369.757332 Z" id="Path" fill="#000000" opacity="0.11"></path>
                <path d="M75.9129333,364.418138 C74.4935927,356.843873 72.4003205,349.29915 70.3989481,341.747042 C68.2444095,333.589289 66.5391585,325.401991 67.2437233,317.203615 C67.2929567,315.050584 67.7466934,312.901253 68.6017974,310.770474 C69.059959,307.91078 70.1733827,305.069763 71.9306107,302.276661 C74.5957035,297.756475 77.8938835,293.287991 81.6821956,288.874901 C85.3786079,284.583678 89.422197,280.333079 93.935496,276.141567 C99.6332807,270.868016 106.188796,265.745878 112.958745,260.631125 L112.448191,261.000421 C121.944498,254.353089 131.84925,247.775923 143.142708,241.472036 C151.556641,236.774588 160.348384,232.165771 169.64047,227.689901 C178.932556,223.21403 188.541186,218.911729 198.588892,214.712831 C211.863301,209.173388 225.842275,203.925688 240.199058,198.770313 L239.17795,199.139609 C253.473467,194.242741 267.962995,189.460355 283.146876,184.932783 C298.330758,180.405211 313.780127,176.210006 329.607307,172.059116 C359.066283,164.303895 389.413624,157.032452 419.372944,149.532046 C450.006195,141.887614 480.271847,134.054841 508.832248,125.428081 C517.259795,122.90948 525.452488,120.296094 533.410326,117.587922 C541.579193,114.8182 549.533627,111.972157 557.273628,109.049793 C566.310438,105.777828 575.592313,102.598188 584.373845,99.2375918 C600.058069,93.240221 614.802874,86.8477032 627.005119,79.8532325 C636.44016,74.4467356 644.363961,68.6340129 648.979371,62.4409151 C652.815871,57.4352264 655.17756,52.2968102 656.025019,47.1114284 C656.705758,43.3618407 657.246945,39.60856 657.648581,35.8515863 L657.863014,31.9038095 C657.495415,30.2395145 657.005283,28.5789124 656.392618,26.9220033 C654.514313,22.5917312 651.163508,18.3620077 646.416389,14.3290018 C640.841137,9.46537038 633.70359,4.92302671 626.25971,0.410226733 C625.238601,-0.176954278 624.56467,-0.13263873 624.135804,0.535787452 C623.839009,2.00918443 624.127859,3.49036056 624.993535,4.93410559 C626.089525,7.72598512 627.342085,10.5092477 628.751214,13.2838934 C629.207026,14.7522769 630.238481,16.1897173 631.814539,17.5529579 C634.775754,19.9386116 637.417021,22.3698118 639.73834,24.8465585 C642.074153,27.0927888 644.081701,29.381894 645.752668,31.7043896 L644.547761,30.0240917 L648.570928,36.0029977 L647.468131,34.2303758 C648.685001,36.1252018 649.622341,38.042095 650.276179,39.9729322 C651.007942,41.6161816 651.475036,43.2734226 651.675097,44.9362736 L651.348342,40.981111 L651.807841,48.0272831 L651.807841,44.0758134 L651.470875,51.0296615 L652.369451,41.4501172 L651.04201,50.0067109 L653.370137,38.7764124 L651.940585,44.4968111 L653.543725,40.6007358 L650.4804,47.2813047 L652.257129,43.4000013 C651.237513,45.2578833 649.907637,47.0917203 648.274806,48.8914363 L649.837102,47.0671129 C647.655588,49.3730688 645.150625,51.6373279 642.331955,53.8510847 C639.298146,56.1797273 635.93423,58.4502228 632.253616,60.6535213 C624.011564,65.4894722 614.904284,70.125406 604.990022,74.5316738 C593.696564,79.6427336 581.933396,84.6319258 569.966005,89.5398727 C550.88471,97.381881 530.589982,104.826518 509.179424,111.837979 C468.661844,125.080942 425.397483,137.142157 382.30671,149.26246 C359.97507,155.540496 337.73533,161.881312 316.06741,168.465864 C295.99242,174.566638 276.557324,180.92715 257.762122,187.5474 C221.349398,200.421067 187.785566,214.254904 158.398067,229.303725 C143.097702,237.137543 129.202522,245.318248 116.798112,253.795451 C106.671577,260.66041 97.693505,267.739006 89.912329,274.993055 C85.3071303,279.335979 81.0899527,283.719525 77.3629072,288.169545 C73.5950173,292.674959 70.0109269,297.265311 67.4990004,301.881514 C64.2910305,307.694248 62.5987793,313.603054 62.4445139,319.530181 C62.3219809,326.243987 63.547311,332.94302 65.2219287,339.627282 C67.3152009,347.932754 69.7352277,356.212376 71.2975235,364.536313 C71.4506897,365.322914 76.0660996,365.219511 75.9129333,364.418138 Z" id="Path" fill="#000000" opacity="0.11"></path>
                <path d="M74.4466921,375.26081 C73.6184086,373.353696 73.1103535,371.43019 72.9253183,369.500859 C72.6258085,367.24857 72.0914557,365.003666 71.32226,362.766147 C70.3012037,359.073871 69.2801474,355.381594 68.3407757,351.689318 C66.2986632,343.610618 64.5832887,335.417456 65.9412935,327.320294 C66.5623156,322.984604 68.0880288,318.672067 70.505415,314.419481 C73.282688,309.715521 76.7440687,305.070637 80.6240825,300.473753 C90.6751415,288.615084 103.924027,277.142221 120.179802,266.220506 C126.449087,262.003927 133.137006,257.883346 139.845346,253.755381 C143.800237,251.362786 147.618987,248.939422 151.301597,246.485289 L169.108818,237.154907 C178.451483,232.447255 188.508887,227.835602 198.719449,223.393793 C210.536474,218.291067 222.748307,213.317571 235.354948,208.473305 C255.422107,200.79337 276.394603,193.442048 298.272435,186.419338 C321.041989,179.119708 344.607968,172.167152 368.449632,165.332748 C392.954982,158.317423 417.654333,151.412867 442.220946,144.434465 C464.541236,138.091134 486.841105,131.729342 508.17097,124.950322 C531.032026,117.667448 552.601988,109.87116 572.752779,101.607752 C585.515982,96.3794884 598.37108,91.1512251 610.256175,85.657118 C629.135505,76.9285768 647.626834,67.1957365 652.926116,56.0635234 C654.779291,52.038551 655.273017,47.9470582 654.396437,43.8790116 C653.685802,40.7131123 652.126475,37.5796577 649.74042,34.5227835 C645.033351,28.3419129 638.958066,22.2422725 633.40352,16.1758625 L638.896803,22.5339623 C634.084224,15.3955614 628.79175,8.31746776 623.019378,1.29968126 L622.14127,0.313843486 L621.018108,0 L619.997052,0.350766249 C619.3945,1.01054881 619.16871,1.70770497 619.333365,2.3999796 C619.251681,4.22396409 619.486524,6.04425631 619.803051,7.86454853 C619.874525,8.70638753 620.068526,9.54084197 620.364632,10.3716041 C620.390449,11.0671198 620.800073,11.7537695 621.569478,12.3912793 L635.445633,22.9622663 L623.080642,9.01284646 C622.886641,12.3358951 622.416955,15.688482 622.478218,19.0299921 C622.539482,22.3715021 622.958115,25.7536272 622.549692,29.1209832 C621.886006,34.6926282 620.058315,40.1978121 615.7903,45.5774587 C611.664844,50.8253591 605.895958,55.8857777 598.595712,60.6604074 C589.926945,66.2911288 579.736803,71.5784685 569.046344,76.7291939 C563.308008,79.4947088 557.426724,82.2196088 551.525019,84.9371241 C542.846041,88.9247825 534.279379,92.9493637 525.41661,96.8853302 C519.889292,99.2926944 514.293904,101.677905 508.630445,104.040962 C502.966987,106.404019 497.364791,108.763383 491.823859,111.119055 C480.592241,115.763939 469.187042,120.327593 457.628685,124.858016 C438.568968,132.323798 419.47862,139.77235 400.35764,147.203672 C377.49619,156.083596 353.777053,164.627524 329.40444,172.960991 C308.094996,180.245852 286.836605,187.54179 266.2419,195.088803 C245.330668,202.753969 225.123964,210.670209 205.999581,218.922447 C186.928821,227.180645 169.020624,235.781009 152.343074,244.690843 C148.258849,246.938209 143.91936,249.126498 139.324607,251.25571 C135.158697,253.456307 131.27528,255.717211 127.674355,258.038422 C120.969419,262.195925 114.635466,266.424812 108.672498,270.725083 C96.6291649,279.353627 86.4924867,288.313196 78.3573376,297.519932 C71.1282593,305.761093 64.8385527,314.161022 62.2450698,322.775102 C61.0948695,327.147147 60.6890851,331.540629 61.0300129,335.930683 C61.2240136,340.361414 62.1225431,344.854915 63.1844416,349.285646 C64.2463401,353.716378 65.5022393,358.147109 66.7275068,362.577841 L67.9119321,366.853497 C68.1034642,369.60473 68.7512971,372.34933 69.851939,375.072504 C70.0357291,375.611576 74.6509034,375.692806 74.4466921,375.26081 Z" id="Path" fill="#000000" opacity="0.11"></path>
                <path d="M75.8775219,369.576199 L77.1558048,358.097283 C78.6897444,351.047144 79.889626,343.992086 80.7554496,336.932111 C81.2869597,334.537158 81.4815084,332.134027 81.3383467,329.731968 C81.3383467,328.241775 81.3144854,326.751581 81.2667628,325.261388 C81.1747264,322.162966 81.0315587,319.068233 80.9906537,315.9735 C80.9292961,311.152503 81.3383467,306.361014 81.9110174,301.543706 L81.6042295,303.542926 L82.7802498,296.58992 L82.3916518,298.644468 C82.8211549,296.217371 83.4279132,293.795192 84.2119267,291.377931 C84.8936776,288.980343 85.749275,286.590132 86.7787189,284.207298 L84.4982621,288.718452 L90.0511233,278.390379 L79.5385243,296.187862 C82.0132801,292.499265 84.7880063,288.850012 87.8627029,285.240105 L85.929939,287.493838 C90.7976405,282.156438 95.8085097,276.866989 101.821553,271.684509 C107.763012,266.572113 114.287368,261.566686 121.046928,256.590768 L119.840229,257.420703 C130.700521,250.043508 141.918732,242.77697 154.497037,235.761258 C165.590783,229.566468 177.575294,223.585227 190.401448,217.842051 C217.787382,205.592219 249.069523,194.559624 282.437821,184.427046 C318.863772,173.361254 357.682669,163.372532 396.286814,153.321104 C417.761968,147.736567 439.175764,142.140964 460.231641,136.353555 C481.287517,130.566145 502.159321,124.623815 521.803974,118.216721 C539.06632,112.615044 555.511779,106.694273 571.074112,100.478256 C582.895673,95.7347191 594.502482,90.9100336 605.741146,85.9857559 C622.461087,78.6565127 638.720846,70.9805412 649.867473,62.3344687 C654.496484,58.7984813 657.929884,55.0745461 660.093737,51.2428559 C662.495682,46.8892336 663.050819,42.4292902 661.740165,38.0155452 C661.092145,35.8939987 660.067414,33.7896347 658.672286,31.7154207 C657.188623,29.5008065 655.236506,27.3304718 652.83309,25.2234891 C649.459775,22.37257 645.607549,19.5985131 641.297864,16.9167675 C639.538947,15.7241209 637.650497,14.5597537 635.632514,13.4236656 C632.752617,11.6032844 629.44417,9.87557763 625.743717,8.2596291 C622.601985,9.58658125 620.317537,11.1489 619.055741,12.83349 C612.43594,18.8213133 606.03089,24.8386454 599.840592,30.8854863 C593.534396,36.9151137 587.432725,42.9730203 581.53558,49.0592062 C579.422115,50.6289341 578.307579,52.3491402 578.273402,54.0941418 C578.334801,56.4139635 578.068573,58.7334076 577.475753,61.0434595 L578.109781,59.6749898 L575.798646,64.164013 L576.637199,62.7881662 C574.520006,65.2658508 571.954524,67.6907762 568.957275,70.0473261 C566.571685,71.9124179 563.806441,73.711225 560.684228,75.4289898 C554.656634,78.6376183 547.868182,81.6514505 540.395321,84.436545 C519.451933,92.363341 495.747454,99.3089701 472.053201,106.151319 L475.12108,105.266055 C466.551471,107.693152 457.937549,110.096888 449.279312,112.477263 L452.45968,111.654706 C436.169242,115.686343 420.08333,119.82495 403.751986,123.827078 C387.175213,127.884535 370.710929,132.023141 353.694426,135.855594 C320.921896,143.207572 286.823047,149.760845 251.626089,155.471556 C236.37873,157.957671 220.875714,160.237224 205.607902,162.741782 C194.359012,164.58608 182.874918,166.397182 172.341867,168.765261 C164.048367,170.60956 156.532063,172.852227 151.480289,175.917452 C146.643266,178.86833 144.465072,182.213888 142.757286,185.541003 C140.241625,190.450526 138.830401,195.426444 136.877184,200.369165 C134.228582,207.049215 131.33455,213.718199 127.264497,220.306034 C122.672904,227.723804 116.905292,235.041981 111.127453,242.349093 C104.480381,250.751718 97.9048937,259.150655 92.3009013,267.652872 C84.9073127,278.851454 78.1272999,290.116431 72.4619498,301.447803 C70.8550791,304.239827 69.6603333,307.060657 68.8827575,309.898379 C68.3782619,312.023012 67.91808,314.148873 67.502212,316.275965 C65.6921633,327.983573 69.2304505,339.702247 71.5415861,351.365593 L71.4086447,349.598754 C71.681345,353.090627 71.681345,356.584958 71.4086447,360.081749 C71.2450244,363.450668 71.1393531,366.819587 71.0916305,370.188506 C71.0916305,370.763927 71.8790528,371.221313 73.5970651,371.118032 C75.611639,371.011063 75.8161643,370.158997 75.8775219,369.576199 Z" id="Path" fill="#000000" opacity="0.11"></path>
                <path d="M73.8036947,368.798246 L71.6095073,362.824338 C71.1060349,360.609045 70.6093661,358.393751 70.1195011,356.178458 C69.2826482,352.441996 68.5274396,348.703073 67.8538751,344.961689 L68.1600408,346.90007 C67.6973904,343.874964 67.3912247,340.847396 67.2415438,337.817367 C67.0918628,334.787338 67.214329,331.793 67.6089426,328.834352 L65.9046203,339.578526 L67.8742861,328.922964 L65.1494117,341.871354 L66.2414026,337.887518 L64.8330405,342.528558 C65.5134086,340.313265 66.4625222,338.097971 67.6803812,335.882678 C68.966277,333.202173 70.4154612,330.535205 72.0279338,327.881776 L70.5685441,330.193066 L75.4467838,322.568764 L73.8955444,324.909591 C77.0082287,320.54177 80.2433793,316.214564 84.0398336,311.920587 C87.7342328,307.72999 91.8368528,303.591083 96.1435832,299.47433 C104.614167,291.351587 113.829754,283.339609 124.137331,275.515931 C133.49661,268.347324 143.886432,261.360827 155.264175,254.5851 C168.18087,246.990145 182.283974,239.667795 197.504832,232.653694 C211.129204,226.351185 225.570018,220.296049 240.63337,214.44029 C258.064402,207.6578 276.556808,201.214988 295.304353,194.912478 C334.707875,181.661331 376.79545,169.506754 417.770622,156.905427 C436.67125,151.093973 455.408589,145.212369 473.451952,139.050161 C482.330757,136.022594 491.015656,132.924875 499.87405,129.886231 C506.283118,127.670937 512.641158,125.455644 518.876733,123.199737 C524.642853,121.102592 530.34774,118.979603 535.909749,116.808615 C543.93129,113.681359 551.575226,110.465491 559.178341,107.20901 C564.315147,105.182222 569.123194,103.049508 573.578333,100.821581 C579.660824,97.9318533 585.338496,94.9387457 590.61135,91.8422577 C603.347842,84.8862362 615.934653,77.8908318 628.371783,70.8560443 C635.515648,66.8242102 643.139173,62.7333016 648.782827,58.3765578 C652.776838,55.2894801 655.977836,52.0760865 658.345402,48.7769528 C661.494614,44.5686719 662.837008,40.2102597 662.325556,35.8544076 C661.717231,31.0508226 659.09156,26.3087139 654.538742,21.7909863 C651.668499,19.0614942 648.324637,16.4003068 644.527124,13.8233142 L639.424363,10.500374 C635.861938,8.16532228 631.765424,5.94226567 627.177736,3.85449358 C625.244419,5.46197033 624.32409,7.2049493 624.483478,8.95705285 C623.4153,13.5131731 622.503607,18.0668319 621.748398,22.6180292 C620.687024,28.3187177 619.748116,34.0206369 618.931674,39.7237869 C618.044161,43.6718577 617.747768,47.63441 618.043794,51.5940677 C618.90186,53.6734214 619.419841,55.7692895 619.595033,57.8707325 C619.984158,59.8370164 620.014841,61.8104385 619.686883,63.7781817 L620.870724,59.6946574 L618.55407,67.4887983 L624.748822,54.8911628 L614.135079,73.8836121 L623.217994,61.2195178 L614.522889,72.4252105 L651.915923,31.7819598 L598.530835,86.2892554 L653.997849,43.6485485 L577.793213,97.609405 L645.027195,57.3649071 L569.02667,100.710816 L620.431886,72.5876654 L596.346853,85.4659047 L629.708706,68.0721589 L579.977195,93.1788181 L614.165695,76.2244388 C595.663083,84.9600794 575.558204,93.2083553 555.147159,101.349559 L562.811507,98.3478362 C554.960058,101.424633 546.904499,104.427586 538.644829,107.356696 C530.38516,110.285807 521.941791,113.161996 513.314723,115.985264 C495.761224,121.752412 477.666833,127.294337 459.307098,132.714422 C427.292374,142.173725 394.461209,151.267505 362.262786,160.649273 C327.421132,170.799009 293.57962,181.377035 261.983322,192.841179 C233.057219,203.281886 206.230038,214.456956 181.706683,226.281034 C133.240657,249.777913 94.888304,276.187903 75.0283574,304.709806 C71.5584797,309.694217 68.2723015,314.734009 66.2720191,319.847645 C65.2786816,322.830907 64.3703901,325.81663 63.5471446,328.804815 C62.4721629,333.117253 61.5604696,337.434614 60.8120646,341.756897 C59.8731566,347.184366 59.2097976,352.611835 59.4343191,358.050381 C59.6996627,364.190436 60.6487763,370.330491 61.4754236,376.463162 L61.2304911,374.561701 C61.6046935,377.894487 62.0469328,381.226043 62.557209,384.556367 C63.1452901,385.08039 63.9581077,385.567585 64.9657123,386 C66.6494123,385.485815 67.5926003,384.721794 67.5272984,383.925008 L71.9258785,377.105597 L76.8347348,371.268298 C77.3064391,370.632942 77.5263525,369.976569 77.4878883,369.31884 C77.5600806,369.016311 77.0745214,368.732543 76.2938421,368.621023 C75.9060323,368.543488 73.6710229,368.440107 73.8036947,368.798246 Z" id="Path" fill="#000000" opacity="0.11"></path>
                <path d="M75.8693413,372.228116 C74.5317567,367.132703 72.601959,362.063136 71.2133216,356.967723 C69.6000516,351.059998 68.0684661,345.096888 67.5681482,339.144856 C66.9200037,333.111671 67.6748375,327.069461 69.8246841,321.081986 C72.4692216,314.199487 77.513243,307.390834 83.323057,300.774181 C90.2456947,292.931432 98.9651108,285.311132 109.390641,277.992517 C121.786272,269.263853 136.765178,261.089039 150.95787,252.740685 C161.270545,246.677882 171.372202,240.573233 181.26284,234.426737 C195.217285,225.784228 209.375941,217.187257 223.738809,208.635825 L208.137059,217.357104 C213.854978,214.617397 219.760091,211.931843 225.852397,209.300444 C232.693479,206.371197 239.684315,203.48872 246.824907,200.653012 C260.445807,195.247443 274.546603,189.99326 289.351929,185.008617 C316.818361,175.777797 346.316696,167.344519 376.366402,159.228782 C412.103396,149.584421 448.657235,140.397909 483.699909,130.428623 C496.97365,126.651371 510.196337,122.840888 522.765548,118.746096 C539.777482,113.174955 555.973088,107.286285 571.286175,101.104153 C587.684349,94.5244239 603.959997,87.8597716 618.755112,80.7963479 C632.51896,74.1907728 645.302593,67.0498102 652.204938,59.0965354 C657.896412,52.5155618 659.318425,45.548876 656.36064,38.737038 C655.415163,36.5751027 654.109233,34.4358064 652.449992,32.3308487 C650.398097,30.0739539 647.928362,27.8695729 645.05754,25.7326583 C641.987562,23.3744914 638.658916,21.063094 635.071603,18.7984661 C631.344695,16.2683665 627.005257,13.8626412 622.104179,11.6095032 C620.419435,10.7602677 589.869411,21.948022 590.451414,21.7338669 C582.493976,24.5351132 574.703312,27.3966675 567.07942,30.3185298 C564.601467,30.9915671 562.832868,31.9502521 562.06603,33.0360834 C563.064658,36.5487058 563.426205,40.0812044 563.148351,43.6109112 C562.882876,44.9401493 562.790981,46.2767721 562.882876,47.6097025 C563.229889,48.6990772 563.332329,49.7968262 563.189193,50.8921822 C562.678665,54.5845104 558.737385,57.955606 553.193045,61.0091614 C546.311122,64.8011824 537.877191,68.1759703 529.208418,71.425219 C522.898286,73.7846167 516.404363,76.0775525 509.961494,78.3889499 C503.518625,80.7003473 497.433125,83.0117447 490.796255,85.1939107 C487.263398,86.3360708 483.802015,87.5053081 480.412106,88.7016224 C475.476997,90.3557854 470.606556,92.0357947 465.800781,93.7416503 C461.389815,95.3711978 457.17285,97.0622841 453.149885,98.8149092 L440.897202,104.423556 C432.728746,108.115884 423.968078,111.58298 414.809197,114.96146 C400.943243,120.082719 386.811815,125.104286 373.2726,130.343699 C348.978591,139.755401 326.318854,149.701858 305.423365,160.126018 C293.344262,166.148205 281.939055,172.336547 270.799324,178.587659 C256.718949,186.548318 242.93468,194.579132 229.160622,202.609946 L233.244849,200.239471 L185.755491,226.085768 L189.666139,224.036526 C175.810396,231.24395 162.169075,238.473529 149.507969,245.968955 C140.226561,251.463139 131.128944,256.98317 122.439749,262.617662 C111.701652,269.527716 102.07413,276.65589 93.6051005,283.966704 C86.4379439,290.269166 80.3010269,296.718469 75.2260754,303.281272 C70.8457411,308.915765 67.1393043,314.583489 65.4341392,320.413675 C63.8756791,326.312749 63.5514224,332.245961 64.4641351,338.162696 C65.2095067,344.125806 66.8534084,350.06307 68.2114141,356.01141 C69.4775247,361.549903 69.9982638,367.088395 70.9784785,372.626887 C71.0703736,373.132736 72.5406956,373.365353 73.8476485,373.335235 C75.1546014,373.298891 75.9510258,372.674887 75.8693413,372.228116 Z" id="Path" fill="#000000" opacity="0.11"></path>
                <path d="M79.5247324,366.900647 C79.9247217,365.262266 79.8905592,363.613817 79.4227107,361.977785 C78.4909127,359.145756 77.6951436,356.308811 77.0354034,353.466949 C75.4846738,347.533701 73.6992944,341.604141 72.5668538,335.656144 C71.730276,331.231099 71.1895611,326.747053 71.3732001,322.292508 C71.4581467,318.228563 72.3103071,314.17145 73.9237421,310.149448 C75.2572771,306.912748 77.0484016,303.702847 79.2900825,300.53235 C88.0983472,287.698984 100.72039,275.247537 116.936083,263.395162 C130.366063,253.538293 145.849967,244.064749 163.253925,235.056438 C174.874195,229.016251 187.371851,223.256318 200.236784,217.54801 L198.798279,218.167517 C208.398519,214.111226 218.131387,210.088122 228.251938,206.186708 C239.79059,201.739538 251.849553,197.465682 264.194176,193.30614 C287.189863,185.562312 311.471022,178.408489 336.190876,171.398481 L333.956601,172.021674 C362.522671,164.089782 391.588648,156.434454 420.389368,148.62425 C449.812421,140.648107 479.082441,132.491274 506.271219,123.519496 C523.880161,117.707937 540.560705,111.54975 557.210644,105.384187 C571.977919,99.9617121 585.885258,94.2418199 598.866096,88.2518889 C603.251134,86.2535938 607.33782,84.1720884 611.108697,82.0162633 C615.706474,79.6857397 619.991385,77.2851529 623.963429,74.8145028 C632.125163,69.8990156 640.011439,64.8913399 646.938711,59.7398502 C654.080229,54.4113588 659.640411,48.6772382 661.619631,42.7771785 C663.660065,36.6558665 661.711451,30.5529923 657.375529,24.6160571 C655.51025,22.2233361 653.122239,19.8879307 650.234012,17.6318614 C644.571808,13.0224398 637.593526,8.68958341 630.288773,4.40466503 C629.748058,3.7003454 629.033907,3.66715757 628.146318,4.33460182 C626.802248,5.85140735 626.026779,7.42649088 625.840628,9.01777423 C624.902029,12.0415548 624.130064,15.0714814 623.524736,18.1075538 C622.902075,19.6844779 622.871189,21.2845661 623.432916,22.8644769 C627.595401,27.3595849 631.737481,31.862068 634.145193,36.5378653 C635.787318,39.7159923 636.95207,42.9239301 637.634334,46.1475876 C638.310735,48.6646692 638.457388,51.1966812 638.073027,53.7217893 C637.429971,56.4824615 636.226272,59.2223109 634.471662,61.9191848 L635.92037,59.96479 L632.421026,64.5299612 L633.99216,62.5903166 C631.625257,65.2269058 629.0033,67.7123059 625.932448,70.2530192 L630.860095,66.5175438 L622.514721,72.7494819 L627.615805,69.0619446 L620.15802,74.0548702 L636.0632,63.9362677 L627.54439,69.1983835 L633.533063,65.8095367 L622.728967,71.8460353 L628.748246,68.5014389 C617.599717,74.3084309 605.612563,79.8991094 592.836614,85.2502335 C585.606678,88.3035144 578.288323,91.3285242 570.881549,94.3252629 C559.332695,98.9826225 547.355349,103.46298 535.082141,107.869587 L538.499868,106.674825 L522.635496,112.150818 L526.002212,110.996619 C509.097219,116.605363 491.886162,122.059231 474.144592,127.33241 C456.403021,132.605588 438.171747,137.779203 419.960877,142.897505 C387.579196,151.998347 354.901652,160.966438 323.387155,170.469221 C266.724313,187.542519 214.28517,206.640275 170.732115,228.212368 C127.179059,249.784462 92.4508793,274.015269 74.8725438,300.049283 C71.6800002,304.548302 69.4257963,309.127553 68.1289107,313.748484 C67.1516288,317.953471 66.8110484,322.174624 67.1086939,326.39305 C67.4351633,332.35211 68.8022538,338.29642 70.3631855,344.222293 C71.1997633,347.172323 71.9921317,350.134644 72.7402906,353.109258 C74.1005797,357.605595 74.8963488,362.116682 75.127598,366.64252 C75.127598,366.981773 77.3312663,367.19565 77.9638007,367.250963 C78.7697719,367.321027 79.5247324,367.273089 79.5247324,366.900647 Z" id="Path" fill="#000000" opacity="0.11"></path>
                <path d="M77.5960312,371.228194 C75.8894093,362.83016 73.753577,354.450583 71.5973061,346.063622 C69.9826578,339.740179 68.5315181,333.427811 67.7650712,327.082219 L67.9081413,329.226948 C67.6765039,326.925948 67.6390332,324.626178 67.795729,322.327639 C67.795729,320.068476 68.0546178,317.813004 68.5723953,315.561223 L68.2045008,316.838463 C68.885787,313.932066 69.9485935,311.047818 71.3929202,308.185718 C72.8849371,305.365455 74.5881526,302.56365 76.5025668,299.780301 C78.2807239,296.992031 80.2905182,294.22837 82.5319498,291.489319 C85.4682934,287.849555 88.7180287,284.246706 92.2811556,280.680771 L91.667998,281.286168 C96.3484343,276.900733 101.18216,272.552212 106.618824,268.27752 C110.951804,264.864165 115.567518,261.502491 120.465966,258.192496 C131.530039,250.729847 143.861004,243.521468 157.388273,236.608625 C184.765759,222.581139 216.609077,209.823509 250.843709,197.970283 C285.875446,185.840199 324.095603,174.972589 363.255934,164.66977 C386.331098,158.604728 409.866131,152.768555 433.074145,146.773651 C442.496334,144.337298 451.938961,141.912019 461.228298,139.412912 C472.745442,136.31579 483.966226,133.085777 495.054159,129.793009 C515.022658,123.860859 534.613043,117.714606 552.793165,111.070007 C567.529386,105.687882 581.560476,100.062122 595.346302,94.3625326 C614.17024,86.5846607 632.912424,78.5631535 646.677812,69.4526704 C652.689527,65.5992957 657.305569,61.4828516 660.412542,57.2044602 C666.495611,48.156871 664.711418,38.6519076 655.302895,29.9837542 C648.067636,23.6603111 637.879001,17.8241386 627.526857,12.1245495 C623.644729,12.0514004 619.781405,12.3642117 616.357169,13.0289532 C603.031211,14.8106901 589.787007,16.6674863 576.624557,18.5993418 C563.42123,20.489361 550.299658,22.458131 537.25984,24.5056517 C533.507746,24.8766427 530.112556,25.6150502 527.449318,26.6393062 C530.954536,29.99852 534.316683,33.3577338 536.932822,36.820308 C538.976681,39.5187533 540.182558,42.2799532 541.889179,45.0042387 C543.248345,47.1932648 544.556415,49.2678562 544.658608,51.5233283 C544.759615,53.4643077 544.116512,55.4009987 542.7476,57.2782891 C539.681812,61.2761226 534.07142,65.0081722 527.776336,68.4522892 C520.056375,72.5584773 511.761139,76.5196293 502.923014,80.3202807 C497.077579,82.9042913 491.150389,85.4624618 485.243637,88.0243238 C478.519342,90.9368729 472.030091,93.9306337 464.805051,96.6844507 C456.690932,99.7889549 448.024971,102.697813 439.256818,105.543916 C428.332393,109.124616 417.029855,112.557659 405.53315,115.902107 C383.909126,122.177561 360.925935,127.862384 337.493096,133.214978 C317.442843,137.792368 296.452415,141.904636 278.139441,147.393813 C267.613569,150.546306 257.6191,153.920286 247.818798,157.360711 C237.027225,161.159207 226.358282,165.002 216.047016,168.973993 C197.28796,176.149536 179.698204,183.712497 163.366559,191.624692 C147.346352,199.435977 132.997778,207.677002 120.445528,216.276153 C106.567727,225.80746 95.7659345,235.888793 87.171509,246.176847 C84.0239666,249.942119 81.3260732,253.77753 78.7099342,257.594482 C74.9185764,263.131648 71.8323499,268.738951 69.2877458,274.357328 C67.9728635,277.244037 66.8180833,280.14059 65.8234054,283.046987 C64.8287276,285.953383 63.8067983,288.899156 62.7576175,291.884303 C61.3580319,297.347176 60.7542609,302.832844 60.9488026,308.31861 C61.2247235,318.477464 62.7371789,328.621551 65.1080549,338.754564 C67.6628782,349.622174 70.7388855,360.463944 72.9360335,371.338938 C73.058665,371.922186 73.0791036,373.409837 75.7156813,373.335235 C78.3522589,373.254797 77.7084434,371.811442 77.5960312,371.228194 Z" id="Path" fill="#000000" opacity="0.11"></path>
                <path d="M74.3907481,370.519239 L79.3797885,367.294661 L77.6826969,367.663606 L93.5188108,369.464057 L91.4741221,369.117249 C115.345863,374.758415 107.565822,374.987161 124.39361,374.987161 L124.086907,374.271408 C123.195875,371.903902 121.849953,369.561607 120.05887,367.261456 C118.695744,365.409353 117.608651,363.540032 116.797592,361.653494 C114.886612,357.549702 113.596547,353.411388 112.93313,349.256947 L113.035364,350.068626 L112.677544,345.770418 L112.749108,346.600544 C112.851342,344.279881 112.90246,341.955528 113.331844,339.642244 L114.640445,334.805377 C115.185695,332.419533 115.91156,330.039839 116.818038,327.666294 C119.455687,320.287397 124.046013,313.096661 128.329636,305.843205 L127.787793,306.758189 C135.179343,294.317368 141.957486,281.780622 154.286959,269.823119 C166.616431,257.865616 183.147739,246.579593 202.255355,235.920776 C222.17346,224.898475 244.522818,214.473953 269.086005,204.748625 C283.289776,199.079172 297.919523,193.559757 312.975248,188.19038 C330.672028,181.877733 348.920875,175.782764 367.159498,169.676727 L359.543033,172.222446 L379.223161,165.725327 L371.453344,168.278426 C392.288722,161.467704 413.216111,154.697566 433.867467,147.813055 C445.481298,143.946512 456.675969,139.917635 467.870639,135.896136 C491.282325,127.494031 514.581553,119.052573 537.768322,110.571761 L553.829352,104.192704 C568.994126,98.0780579 583.98851,91.9043806 598.812503,85.6716722 C607.553547,81.9822236 616.192357,78.3370484 624.095079,74.4040962 C628.542277,72.1719798 632.641877,69.9066584 636.59835,67.5527902 C641.173144,64.9387779 645.225107,62.2102623 648.723354,59.3880405 C652.504688,56.288305 655.558581,53.0795249 657.852889,49.7954742 C660.626353,45.5326561 661.519949,41.1386796 660.500761,36.7754102 C659.492774,31.9102315 656.388439,27.1315463 651.299662,22.6116171 C648.024128,19.8335509 644.320874,17.1237287 640.207226,14.4948302 C638.523765,13.3265049 636.697177,12.1852354 634.72746,11.071022 C631.954987,9.31472997 628.810428,7.63841538 625.321892,6.05706134 C623.297523,7.65100571 622.284627,9.38792791 622.357093,11.1411215 C621.041677,15.6914414 619.88302,20.2417613 618.881123,24.7920812 C617.517997,30.4812109 616.270737,36.1764897 615.139342,41.8779176 C614.044177,45.8191013 613.535682,49.7786501 613.616049,53.7394947 C613.920985,56.44515 613.815185,59.1548013 613.299122,61.8562816 L614.433925,57.845851 L612.072309,65.6564136 L637.81494,21.3830307 L594.641338,82.2478639 L624.943625,59.0891952 L592.504638,82.8381757 L639.021306,53.3557921 L570.524235,95.1830706 L590.52129,84.321334 L572.272444,93.7441857 L627.714178,66.4201295 L557.744931,100.363056 L594.273294,83.7900534 L546.908081,104.930594 L584.244096,88.7486723 L537.829663,108.228961 L583.221752,90.0510476 L489.27853,126.347843 L535.815645,109.191907 L511.657648,118.005999 L528.178732,112.202497 C515.603897,116.537599 502.865486,120.758328 489.861266,124.923716 L498.040021,122.341102 C480.026314,127.931846 461.75702,133.406988 443.232141,138.766527 C424.768602,144.101469 406.100594,149.351555 387.555268,154.631156 C355.995498,163.655547 324.660644,172.805379 295.063775,182.670965 C242.188125,200.295461 194.076601,219.997116 155.728464,242.026813 C145.873065,247.690117 136.579955,253.486241 128.125167,259.4447 C118.525045,266.260716 109.975448,273.262886 102.515441,280.419215 C96.8721003,285.794742 91.8421661,291.269884 87.5892136,296.807746 C84.753912,300.497194 82.2525761,304.213699 80.0852061,307.957259 C78.0405174,311.223651 76.4524759,314.519559 75.3210815,317.844982 C72.5607517,326.95792 74.6361108,336.218436 77.6315797,345.2871 C78.4699021,347.958261 79.4240901,350.625732 80.4941439,353.289514 C82.6212508,355.646821 82.5494307,358.190724 80.289675,360.531902 C75.4388152,361.823614 72.7422806,363.917231 73.1332646,366.088211 C73.1332646,367.519717 73.1332646,368.951223 73.1332646,370.382729 C73.028809,370.508043 73.2256282,370.640189 73.5728727,370.677885 C73.9201171,370.715581 74.2862924,370.644553 74.3907481,370.519239 L74.3907481,370.519239 Z" id="Path" fill="#000000" opacity="0.11"></path>
                <path d="M78.5645133,371.580759 C76.7982543,366.977515 74.7154981,362.436976 72.3672925,357.870617 C70.1007636,353.466552 67.7321389,349.066176 65.6800114,344.647357 C62.0045592,336.739221 59.0948262,328.753626 59.870755,320.716392 C59.9437581,318.583348 60.4007513,316.454279 61.23884,314.34267 C61.9289789,312.001165 63.0925775,309.68105 64.72031,307.40092 C67.5653823,302.868987 70.9107244,298.388693 74.7563364,293.960038 C84.0470628,283.237579 97.0132414,272.876592 111.847775,263.013553 C141.32286,243.401817 179.302532,225.53474 221.529394,209.301667 C241.948573,201.44148 263.490807,193.972275 285.849808,186.823969 C310.975608,178.786735 337.408235,171.280645 364.341132,164.047503 C390.069297,157.13526 416.175217,150.400066 441.934012,143.513643 C456.053874,139.732934 470.143107,135.930094 483.793328,131.935452 C495.003458,128.662526 506.036621,125.31829 516.892817,121.902742 C529.967898,117.781462 542.620983,113.496658 554.852071,109.048331 C565.776332,105.086886 576.149275,100.933639 586.399702,96.7398186 C600.182648,91.103796 613.965594,85.4235114 626.411084,79.4038851 C636.151032,74.6752325 645.227357,69.7805977 652.302602,64.4580972 C658.736914,59.667914 662.94177,54.5273305 664.748092,49.2430491 C665.662135,46.3024963 665.716887,43.3353517 664.911445,40.3906575 C664.551369,38.8246517 663.913663,37.2686009 663.002252,35.7320864 C662.231913,34.1061947 661.18861,32.498732 659.878118,30.9185985 C653.088741,23.5748019 641.255827,16.9023118 629.565847,10.4621969 C626.1769,11.0831298 623.344797,12.0385202 621.398175,13.2175038 C612.72683,17.0978021 604.218839,21.0321983 595.874201,25.0206926 C587.529564,29.0091868 579.287022,33.0112055 571.146576,37.0267487 C568.520245,38.011581 566.715593,39.2439513 565.939685,40.5824593 C567.724307,43.844831 568.921341,47.145587 569.523251,50.4639415 C569.860168,53.1159705 569.523251,55.7606225 569.165915,58.4089629 C569.104281,60.4816545 568.419626,62.545795 567.123998,64.5650636 C565.940045,66.1871206 564.396823,67.7721389 562.509263,69.3047816 C557.965996,72.9932781 551.666679,76.3682524 545.091703,79.6325718 C536.188941,84.0587677 526.193753,88.2157032 516.229194,92.3357538 C510.225956,94.818112 504.161459,97.2820276 498.117382,99.7496318 L491.593455,102.416415 C486.992333,104.312302 482.370792,106.202042 477.728832,108.085634 C469.734724,111.110201 461.219926,113.942966 452.654081,116.746224 C440.994729,120.562588 429.083542,124.265839 416.920517,127.855975 C395.010738,134.314533 372.202516,140.352601 348.71025,146.043951 C324.023463,152.023004 297.98901,157.271735 274.10878,163.68603 C261.450158,167.023416 249.407882,170.655697 238.05872,174.559718 C228.727155,177.835103 219.681459,181.199012 210.69702,184.610871 C190.829159,192.132945 171.744033,199.900918 153.441642,207.914792 C133.815403,216.528644 115.483232,225.516918 98.5242607,234.840816 C82.3931093,243.726404 67.3645937,252.969777 55.0416192,262.622572 C44.4338557,270.929066 35.1941773,279.512198 28.9356989,288.383032 C26.1867152,292.289319 24.0899703,296.251759 22.6568014,300.248925 C21.2274947,303.253961 20.942388,306.315498 21.8094055,309.348446 L23.7492275,313.564397 C25.0365458,315.872891 26.6690689,318.154495 28.6396209,320.399181 C30.5113789,322.796704 32.6315703,325.163489 35.0001951,327.499537 C39.4992208,332.171633 44.0458913,336.836351 48.6402066,341.493693 C53.4999712,346.410459 58.6149755,351.294028 62.8417455,356.288252 L66.6703416,360.943135 C69.3267611,364.215836 71.4606763,367.540959 73.0615446,370.902075 C73.3167843,371.363138 74.3990008,372.134033 75.7670858,372.233951 C76.5532242,372.244688 78.7278667,371.975428 78.5645133,371.580759 Z" id="Path" fill="#000000" opacity="0.11"></path>
                <path d="M77.219428,375.714903 C74.5205049,359.750593 66.9962345,343.867432 69.0408732,327.833038 C69.3204994,324.969242 70.2229137,322.11779 71.7397963,319.304968 C72.8644965,315.992949 74.6860759,312.716611 77.1887584,309.504328 C81.0664111,303.927279 85.7308533,298.425314 91.1638639,293.019924 C100.290934,284.029029 111.104842,275.272899 123.530494,266.81234 C138.461422,256.671014 155.529865,246.958595 174.585122,237.760836 C182.528544,233.902549 190.942232,230.162297 198.926546,226.326141 C209.773354,221.162085 221.550473,216.270986 233.685404,211.516366 C255.437514,203.07093 278.363547,195.02925 302.375041,187.422356 C329.517619,178.787317 357.835865,170.661306 386.389244,162.642265 C411.068033,155.715053 435.910394,148.861613 460.282487,141.797922 C484.65458,134.734231 508.863102,127.56357 531.609707,119.817486 C542.003288,116.276419 552.103803,112.627153 561.911253,108.869688 C570.999672,105.398704 579.720056,101.765422 588.399547,98.1727146 C600.514031,93.1414486 612.485391,88.0622307 623.424208,82.6805467 C632.74776,78.0992913 641.611269,73.2635217 647.959872,68.0478252 C653.951391,63.2751198 657.67352,58.1725658 658.970252,52.9540273 C659.98926,48.2545713 659.131979,43.5266682 656.424676,38.9151723 C654.175574,35.0605734 650.566787,31.2502378 646.784205,27.5690036 C639.188372,20.1659605 631.551647,12.766606 624.139831,5.34143128 C624.398171,5.00785501 623.978563,4.65435002 623.131138,4.49164279 C622.283713,4.32893556 621.236679,4.40084225 620.614179,4.66449886 C619.991679,4.92815546 619.961348,5.31256069 620.541267,5.58856824 C620.824735,6.86272945 621.330077,8.12919468 622.0543,9.38046077 C622.659202,10.6363279 623.485551,11.8769915 624.528313,13.0948925 L635.334228,20.8409764 L624.763446,10.3284339 C625.415517,12.3537385 625.756811,14.3904998 625.785766,16.4293972 C625.744873,18.1064858 625.864143,19.7823449 626.143577,21.4569745 C626.327595,23.2742304 626.668368,25.0927158 627.165897,26.9124308 C627.574824,29.204288 627.786104,31.4998338 627.799735,33.7990683 L627.799735,33.2125791 C627.756045,36.2961554 627.185873,39.3758317 626.092461,42.4341076 C625.12435,44.7846112 623.758708,47.1115509 622.003184,49.4018945 C618.428076,54.0732821 613.547004,58.601551 607.435133,62.9169667 C599.634837,68.4056205 590.16816,73.5770537 580.159653,78.5677449 C568.852801,84.2039432 557.014343,89.7073514 545.237224,95.2181368 C536.455501,99.3235613 527.234181,103.303573 517.971967,107.272519 C508.709754,111.241465 499.76446,115.147704 490.502247,119.039189 C470.413671,127.482421 449.517464,135.700647 427.762508,143.586898 C386.624378,158.503643 341.315185,171.764201 298.878708,186.175606 C279.526203,192.748711 260.643965,199.495181 242.456904,206.488789 C233.25603,210.01879 224.372075,213.637317 215.641467,217.307486 C207.299342,220.811667 198.640297,224.223632 190.369733,227.749945 C185.31266,230.012293 180.388489,232.311527 175.597219,234.647648 C170.805949,236.983769 166.069202,239.329725 161.38698,241.685519 C153.637799,245.711023 146.185091,249.805382 139.028856,253.968595 C125.005551,262.142901 112.508928,270.645578 101.622191,279.420013 C89.5613977,289.048005 79.899839,299.044243 72.7518924,309.290388 C70.5027899,312.588007 68.3354729,315.896692 66.8940026,319.249639 C65.646773,322.141511 64.9311494,325.051825 64.4404362,327.973205 C63.1932066,335.350428 64.5733377,342.760848 66.2499414,350.104874 C68.2127945,358.69565 71.1468511,367.24954 72.5985445,375.85507 C72.6598837,376.190734 74.5102817,376.069009 74.9703254,376.057944 C75.4303691,376.046878 77.2705439,376.054255 77.219428,375.714903 Z" id="Path" fill="#000000" opacity="0.11"></path>
            </g>
            <g id="Unbenannt-2-Copy">
                <path d="M72.650196,370.493836 L75.9164475,366.432845 C75.3380488,364.23991 74.7630525,362.046975 74.1914584,359.85404 C73.9192708,358.746497 73.6266691,357.638954 73.3136533,356.531411 C72.7900536,354.815109 72.5310745,353.089594 72.5379186,351.362877 L72.935993,355.368491 C72.7420593,351.444097 72.8645437,347.61569 73.3851026,343.676529 L72.9564071,345.788244 C73.4463448,343.218744 74.2220795,340.66032 75.2836113,338.112971 C76.8759089,334.598368 78.6655426,331.096071 80.6525123,327.60608 C83.7146232,322.374785 87.4810195,317.180409 91.9414944,312.100478 C97.1498803,306.199159 103.256199,300.406486 110.232503,294.748971 C117.020182,289.211256 124.440698,283.765837 131.891834,278.338876 C138.192978,273.761032 144.688055,269.220106 151.377066,264.716097 C160.389879,258.672605 169.851802,252.691872 180.477326,246.99541 C188.642955,242.639074 197.206659,238.394723 206.168436,234.262357 C218.24336,228.724642 231.165468,223.493348 244.414201,218.332197 L242.270723,219.137012 L254.519167,214.559168 L252.324654,215.367674 C277.774197,206.197218 304.220628,197.415633 331.663946,189.022918 C360.386546,180.265945 389.997158,171.907687 419.15866,163.34638 C445.053911,155.744943 470.591916,148.003218 494.956111,139.759406 C501.760802,137.322812 508.739012,134.951439 515.890742,132.645289 C521.334495,130.895371 526.682982,129.102382 531.936203,127.266321 C539.081128,124.736201 546.015108,122.133475 552.738143,119.458143 C564.540393,114.776459 575.631342,109.866513 585.962046,104.749973 C596.166914,99.7349079 605.376315,94.4645688 613.521043,88.9785605 C618.267791,85.0417968 622.46477,81.0212716 626.096112,76.9321846 C631.784833,71.0868189 637.35107,65.2279165 642.794823,59.3554775 C647.245091,54.6619565 651.549058,49.9536682 655.706724,45.2306127 C657.83153,43.4978323 658.946852,41.6253338 658.983182,39.7298158 C659.221347,38.0315833 659.354038,36.3308895 659.385845,34.6277345 C659.483327,31.3051055 657.870616,27.9086404 655.706724,24.6819985 C653.487579,21.4112747 650.369104,18.2290788 646.397907,15.1829715 C643.539937,12.9678856 640.413181,10.8020237 637.017641,8.68538602 C633.519123,6.41656849 629.540092,4.24914948 625.116236,2.20256776 C623.687583,3.83986272 623.310562,5.57347189 624.013877,7.27142281 C624.347306,11.7458965 624.840646,16.2166783 625.493897,20.6837683 C626.174366,26.265785 626.990929,31.8478016 627.943585,37.4298182 C628.277555,41.3031995 629.200989,45.1669903 630.709692,49.0036424 L632.506131,53.4818079 L631.57729,49.6017156 L633.455385,57.7236975 L632.893998,53.7623854 L633.628905,61.7366949 L639.385673,17.3205295 L624.605885,78.383066 L652.369023,33.1104006 L607.794896,91.1751874 L642.417163,55.6784348 L615.613486,81.4657273 L649.184428,50.3216186 L608.182763,86.4533625 L644.213601,55.7264283 L631.209837,66.2923884 L641.039213,58.4214496 L637.436129,61.112779 L642.794823,57.4209691 C638.879502,60.2298339 634.527747,62.9562891 629.760438,65.5872527 C626.358092,67.4626921 622.82986,69.3085971 619.175741,71.1249676 C611.204046,75.0641288 602.701585,78.8556176 594.056225,82.5954211 C583.114283,87.2840197 572.121305,91.9836938 560.658803,96.5172364 C544.939967,102.730553 528.169807,108.548845 511.175092,114.293301 L513.910577,113.381424 L497.987601,118.631178 L500.712879,117.734068 C482.911808,123.409611 464.828343,128.954709 446.462482,134.369364 C428.089817,139.759406 409.594667,145.046078 391.140346,150.37336 C355.415719,160.662434 320.027925,171.080722 286.793815,182.407195 C235.5647,199.865764 188.979787,219.240383 151.244375,240.77471 C133.253804,250.954037 117.496918,261.627753 104.118489,272.697791 C89.1345594,285.213026 77.1208778,298.337411 70.1596791,311.753448 C64.5764303,322.526149 64.9234696,333.535127 66.454525,344.429658 C68.1284789,356.276676 71.1497617,368.101543 74.3139429,379.90426 C74.3322841,381.324631 74.8432232,382.738559 75.8347913,384.112923 C75.8034876,384.628779 76.4279662,385.121337 77.5291593,385.449358 L78.4988277,384.873436 C79.1469599,383.190799 79.2086844,381.485394 78.6825544,379.797197 C78.3457222,376.655467 77.8251633,373.52112 77.2535693,370.383082 C77.1733513,369.571552 76.8655623,368.765064 76.334936,367.976022 C76.154189,367.637271 75.3489665,367.388948 74.3955992,367.377948 C73.4567417,367.434085 72.7496517,367.7174 72.6910241,368.060933 C72.447764,368.869269 72.4340832,369.684492 72.650196,370.493836 Z" id="Path" fill="#000000" opacity="0.11"></path>
                <path d="M76.9681763,369.757332 L73.329309,365.756057 C70.4877216,363.814478 67.3974102,361.929499 64.0583746,360.101117 C61.3707977,358.977559 59.6013003,357.606258 58.947606,356.140445 C57.5218512,354.846496 56.7364913,353.472174 56.627317,352.08011 C54.3967772,345.124727 53.5530316,338.120456 54.1025973,331.121399 C54.5612025,324.727101 56.7834446,318.365228 60.736375,312.130105 C66.6955313,302.772879 75.9766872,293.733097 85.8302492,284.833581 L84.97164,285.571823 C89.2646857,281.995037 93.6088391,278.436707 98.2596386,274.922672 C104.116579,270.493216 110.525483,266.15604 117.200147,261.877923 C129.26061,254.129419 142.433677,246.613711 156.665503,239.36152 C169.176665,232.997868 182.382891,226.822467 196.284182,220.835319 C213.793675,213.301552 232.396873,206.151671 251.480483,199.142057 L245.94041,201.120547 L263.102371,195.000515 L257.449861,196.990079 L274.877582,190.936489 L269.112635,192.933435 C284.77203,187.636544 300.59497,182.420859 317.000538,177.430338 C330.431638,173.342934 344.033097,169.335507 357.804915,165.408055 C392.404819,155.489764 427.85311,145.962742 462.412128,136.033377 C490.184045,128.052974 517.465328,119.851097 543.060057,110.962655 C558.392363,105.628851 572.825174,99.9480731 586.838902,94.1528677 C593.993978,91.1998968 601.149054,88.2173962 608.109921,85.1869098 C620.171335,79.9380041 631.874995,74.545141 641.963653,68.7720829 C651.612784,63.2352625 659.749128,57.3293207 663.899072,50.9545948 C668.206124,44.0908261 668.024137,36.9590165 663.367552,30.1250763 C661.092473,26.7774108 657.819511,23.5286341 653.605984,20.4356406 C650.546337,18.161853 647.231152,15.9372816 643.660428,13.7619264 C639.767777,11.450765 635.419186,9.24386085 630.648411,7.15834522 C627.74814,8.36897455 625.703412,9.81536686 624.689255,11.3737112 C619.012894,16.8957667 613.561408,22.4436608 608.334795,28.0173934 C602.958266,33.5788219 597.79639,39.1660889 592.849166,44.7791944 C590.98789,46.2311654 590.131962,47.8247716 590.355111,49.4227411 C591.59055,52.5014324 592.378688,55.601375 592.716286,58.7098346 C592.905392,59.8284614 592.905392,60.9502121 592.716286,62.068839 C592.714934,63.6787201 592.300899,65.2850997 591.47948,66.8674167 L592.266538,65.5459622 L589.455615,69.5250905 L590.406218,68.2073272 C588.432228,70.3857065 586.066008,72.5151555 583.322693,74.5820531 C580.958111,76.2750898 578.395912,77.9250623 575.636097,79.5319706 C569.022964,83.3160975 561.672129,86.9253867 553.639349,90.3324616 C534.218428,98.7115165 513.172282,106.625479 492.494112,114.605882 C456.391642,128.540214 416.435653,141.112487 376.285454,153.489127 C353.481204,160.502432 330.492967,167.475135 307.801154,174.562265 C285.109341,181.649395 262.478857,188.825115 240.890971,196.358882 C222.778406,202.68193 205.197362,209.200614 187.953629,215.833725 C168.931348,223.157092 150.287264,230.635491 132.450681,238.350128 C114.900301,245.920807 98.0041001,253.772018 83.6837263,262.195368 C70.5286078,269.946916 58.4671937,277.919938 47.2439457,286.044299 C35.0117259,294.896735 24.0165782,303.965133 14.2999309,313.215322 C10.1010896,317.088074 6.4942722,321.041162 3.49576589,325.056735 C1.17391106,328.347615 0,331.73035 0,335.126366 C0,337.820683 0.486022708,340.51214 1.44123689,343.184285 C2.37139678,345.841959 3.0869044,348.495942 3.84329816,351.160998 C4.006329,352.743691 4.80867147,354.309297 6.22491636,355.808236 C7.0017532,357.752275 10.1193221,359.178314 15.577623,360.086353 L16.8859798,360.422253 C31.8630578,362.185843 46.5867954,364.218544 61.002135,366.512756 L59.9799812,366.217458 L72.1231676,370.720739 C72.9204475,371.012345 75.0771919,371.274421 76.1504533,371.045566 C77.2237147,370.816711 77.3565947,370.141219 76.9681763,369.757332 Z" id="Path" fill="#000000" opacity="0.11"></path>
                <path d="M75.9129333,364.418138 C74.4935927,356.843873 72.4003205,349.29915 70.3989481,341.747042 C68.2444095,333.589289 66.5391585,325.401991 67.2437233,317.203615 C67.2929567,315.050584 67.7466934,312.901253 68.6017974,310.770474 C69.059959,307.91078 70.1733827,305.069763 71.9306107,302.276661 C74.5957035,297.756475 77.8938835,293.287991 81.6821956,288.874901 C85.3786079,284.583678 89.422197,280.333079 93.935496,276.141567 C99.6332807,270.868016 106.188796,265.745878 112.958745,260.631125 L112.448191,261.000421 C121.944498,254.353089 131.84925,247.775923 143.142708,241.472036 C151.556641,236.774588 160.348384,232.165771 169.64047,227.689901 C178.932556,223.21403 188.541186,218.911729 198.588892,214.712831 C211.863301,209.173388 225.842275,203.925688 240.199058,198.770313 L239.17795,199.139609 C253.473467,194.242741 267.962995,189.460355 283.146876,184.932783 C298.330758,180.405211 313.780127,176.210006 329.607307,172.059116 C359.066283,164.303895 389.413624,157.032452 419.372944,149.532046 C450.006195,141.887614 480.271847,134.054841 508.832248,125.428081 C517.259795,122.90948 525.452488,120.296094 533.410326,117.587922 C541.579193,114.8182 549.533627,111.972157 557.273628,109.049793 C566.310438,105.777828 575.592313,102.598188 584.373845,99.2375918 C600.058069,93.240221 614.802874,86.8477032 627.005119,79.8532325 C636.44016,74.4467356 644.363961,68.6340129 648.979371,62.4409151 C652.815871,57.4352264 655.17756,52.2968102 656.025019,47.1114284 C656.705758,43.3618407 657.246945,39.60856 657.648581,35.8515863 L657.863014,31.9038095 C657.495415,30.2395145 657.005283,28.5789124 656.392618,26.9220033 C654.514313,22.5917312 651.163508,18.3620077 646.416389,14.3290018 C640.841137,9.46537038 633.70359,4.92302671 626.25971,0.410226733 C625.238601,-0.176954278 624.56467,-0.13263873 624.135804,0.535787452 C623.839009,2.00918443 624.127859,3.49036056 624.993535,4.93410559 C626.089525,7.72598512 627.342085,10.5092477 628.751214,13.2838934 C629.207026,14.7522769 630.238481,16.1897173 631.814539,17.5529579 C634.775754,19.9386116 637.417021,22.3698118 639.73834,24.8465585 C642.074153,27.0927888 644.081701,29.381894 645.752668,31.7043896 L644.547761,30.0240917 L648.570928,36.0029977 L647.468131,34.2303758 C648.685001,36.1252018 649.622341,38.042095 650.276179,39.9729322 C651.007942,41.6161816 651.475036,43.2734226 651.675097,44.9362736 L651.348342,40.981111 L651.807841,48.0272831 L651.807841,44.0758134 L651.470875,51.0296615 L652.369451,41.4501172 L651.04201,50.0067109 L653.370137,38.7764124 L651.940585,44.4968111 L653.543725,40.6007358 L650.4804,47.2813047 L652.257129,43.4000013 C651.237513,45.2578833 649.907637,47.0917203 648.274806,48.8914363 L649.837102,47.0671129 C647.655588,49.3730688 645.150625,51.6373279 642.331955,53.8510847 C639.298146,56.1797273 635.93423,58.4502228 632.253616,60.6535213 C624.011564,65.4894722 614.904284,70.125406 604.990022,74.5316738 C593.696564,79.6427336 581.933396,84.6319258 569.966005,89.5398727 C550.88471,97.381881 530.589982,104.826518 509.179424,111.837979 C468.661844,125.080942 425.397483,137.142157 382.30671,149.26246 C359.97507,155.540496 337.73533,161.881312 316.06741,168.465864 C295.99242,174.566638 276.557324,180.92715 257.762122,187.5474 C221.349398,200.421067 187.785566,214.254904 158.398067,229.303725 C143.097702,237.137543 129.202522,245.318248 116.798112,253.795451 C106.671577,260.66041 97.693505,267.739006 89.912329,274.993055 C85.3071303,279.335979 81.0899527,283.719525 77.3629072,288.169545 C73.5950173,292.674959 70.0109269,297.265311 67.4990004,301.881514 C64.2910305,307.694248 62.5987793,313.603054 62.4445139,319.530181 C62.3219809,326.243987 63.547311,332.94302 65.2219287,339.627282 C67.3152009,347.932754 69.7352277,356.212376 71.2975235,364.536313 C71.4506897,365.322914 76.0660996,365.219511 75.9129333,364.418138 Z" id="Path" fill="#C53849" opacity="0.11"></path>
                <path d="M74.4466921,375.26081 C73.6184086,373.353696 73.1103535,371.43019 72.9253183,369.500859 C72.6258085,367.24857 72.0914557,365.003666 71.32226,362.766147 C70.3012037,359.073871 69.2801474,355.381594 68.3407757,351.689318 C66.2986632,343.610618 64.5832887,335.417456 65.9412935,327.320294 C66.5623156,322.984604 68.0880288,318.672067 70.505415,314.419481 C73.282688,309.715521 76.7440687,305.070637 80.6240825,300.473753 C90.6751415,288.615084 103.924027,277.142221 120.179802,266.220506 C126.449087,262.003927 133.137006,257.883346 139.845346,253.755381 C143.800237,251.362786 147.618987,248.939422 151.301597,246.485289 L169.108818,237.154907 C178.451483,232.447255 188.508887,227.835602 198.719449,223.393793 C210.536474,218.291067 222.748307,213.317571 235.354948,208.473305 C255.422107,200.79337 276.394603,193.442048 298.272435,186.419338 C321.041989,179.119708 344.607968,172.167152 368.449632,165.332748 C392.954982,158.317423 417.654333,151.412867 442.220946,144.434465 C464.541236,138.091134 486.841105,131.729342 508.17097,124.950322 C531.032026,117.667448 552.601988,109.87116 572.752779,101.607752 C585.515982,96.3794884 598.37108,91.1512251 610.256175,85.657118 C629.135505,76.9285768 647.626834,67.1957365 652.926116,56.0635234 C654.779291,52.038551 655.273017,47.9470582 654.396437,43.8790116 C653.685802,40.7131123 652.126475,37.5796577 649.74042,34.5227835 C645.033351,28.3419129 638.958066,22.2422725 633.40352,16.1758625 L638.896803,22.5339623 C634.084224,15.3955614 628.79175,8.31746776 623.019378,1.29968126 L622.14127,0.313843486 L621.018108,0 L619.997052,0.350766249 C619.3945,1.01054881 619.16871,1.70770497 619.333365,2.3999796 C619.251681,4.22396409 619.486524,6.04425631 619.803051,7.86454853 C619.874525,8.70638753 620.068526,9.54084197 620.364632,10.3716041 C620.390449,11.0671198 620.800073,11.7537695 621.569478,12.3912793 L635.445633,22.9622663 L623.080642,9.01284646 C622.886641,12.3358951 622.416955,15.688482 622.478218,19.0299921 C622.539482,22.3715021 622.958115,25.7536272 622.549692,29.1209832 C621.886006,34.6926282 620.058315,40.1978121 615.7903,45.5774587 C611.664844,50.8253591 605.895958,55.8857777 598.595712,60.6604074 C589.926945,66.2911288 579.736803,71.5784685 569.046344,76.7291939 C563.308008,79.4947088 557.426724,82.2196088 551.525019,84.9371241 C542.846041,88.9247825 534.279379,92.9493637 525.41661,96.8853302 C519.889292,99.2926944 514.293904,101.677905 508.630445,104.040962 C502.966987,106.404019 497.364791,108.763383 491.823859,111.119055 C480.592241,115.763939 469.187042,120.327593 457.628685,124.858016 C438.568968,132.323798 419.47862,139.77235 400.35764,147.203672 C377.49619,156.083596 353.777053,164.627524 329.40444,172.960991 C308.094996,180.245852 286.836605,187.54179 266.2419,195.088803 C245.330668,202.753969 225.123964,210.670209 205.999581,218.922447 C186.928821,227.180645 169.020624,235.781009 152.343074,244.690843 C148.258849,246.938209 143.91936,249.126498 139.324607,251.25571 C135.158697,253.456307 131.27528,255.717211 127.674355,258.038422 C120.969419,262.195925 114.635466,266.424812 108.672498,270.725083 C96.6291649,279.353627 86.4924867,288.313196 78.3573376,297.519932 C71.1282593,305.761093 64.8385527,314.161022 62.2450698,322.775102 C61.0948695,327.147147 60.6890851,331.540629 61.0300129,335.930683 C61.2240136,340.361414 62.1225431,344.854915 63.1844416,349.285646 C64.2463401,353.716378 65.5022393,358.147109 66.7275068,362.577841 L67.9119321,366.853497 C68.1034642,369.60473 68.7512971,372.34933 69.851939,375.072504 C70.0357291,375.611576 74.6509034,375.692806 74.4466921,375.26081 Z" id="Path" fill="#000000" opacity="0.11"></path>
                <path d="M75.8775219,369.576199 L77.1558048,358.097283 C78.6897444,351.047144 79.889626,343.992086 80.7554496,336.932111 C81.2869597,334.537158 81.4815084,332.134027 81.3383467,329.731968 C81.3383467,328.241775 81.3144854,326.751581 81.2667628,325.261388 C81.1747264,322.162966 81.0315587,319.068233 80.9906537,315.9735 C80.9292961,311.152503 81.3383467,306.361014 81.9110174,301.543706 L81.6042295,303.542926 L82.7802498,296.58992 L82.3916518,298.644468 C82.8211549,296.217371 83.4279132,293.795192 84.2119267,291.377931 C84.8936776,288.980343 85.749275,286.590132 86.7787189,284.207298 L84.4982621,288.718452 L90.0511233,278.390379 L79.5385243,296.187862 C82.0132801,292.499265 84.7880063,288.850012 87.8627029,285.240105 L85.929939,287.493838 C90.7976405,282.156438 95.8085097,276.866989 101.821553,271.684509 C107.763012,266.572113 114.287368,261.566686 121.046928,256.590768 L119.840229,257.420703 C130.700521,250.043508 141.918732,242.77697 154.497037,235.761258 C165.590783,229.566468 177.575294,223.585227 190.401448,217.842051 C217.787382,205.592219 249.069523,194.559624 282.437821,184.427046 C318.863772,173.361254 357.682669,163.372532 396.286814,153.321104 C417.761968,147.736567 439.175764,142.140964 460.231641,136.353555 C481.287517,130.566145 502.159321,124.623815 521.803974,118.216721 C539.06632,112.615044 555.511779,106.694273 571.074112,100.478256 C582.895673,95.7347191 594.502482,90.9100336 605.741146,85.9857559 C622.461087,78.6565127 638.720846,70.9805412 649.867473,62.3344687 C654.496484,58.7984813 657.929884,55.0745461 660.093737,51.2428559 C662.495682,46.8892336 663.050819,42.4292902 661.740165,38.0155452 C661.092145,35.8939987 660.067414,33.7896347 658.672286,31.7154207 C657.188623,29.5008065 655.236506,27.3304718 652.83309,25.2234891 C649.459775,22.37257 645.607549,19.5985131 641.297864,16.9167675 C639.538947,15.7241209 637.650497,14.5597537 635.632514,13.4236656 C632.752617,11.6032844 629.44417,9.87557763 625.743717,8.2596291 C622.601985,9.58658125 620.317537,11.1489 619.055741,12.83349 C612.43594,18.8213133 606.03089,24.8386454 599.840592,30.8854863 C593.534396,36.9151137 587.432725,42.9730203 581.53558,49.0592062 C579.422115,50.6289341 578.307579,52.3491402 578.273402,54.0941418 C578.334801,56.4139635 578.068573,58.7334076 577.475753,61.0434595 L578.109781,59.6749898 L575.798646,64.164013 L576.637199,62.7881662 C574.520006,65.2658508 571.954524,67.6907762 568.957275,70.0473261 C566.571685,71.9124179 563.806441,73.711225 560.684228,75.4289898 C554.656634,78.6376183 547.868182,81.6514505 540.395321,84.436545 C519.451933,92.363341 495.747454,99.3089701 472.053201,106.151319 L475.12108,105.266055 C466.551471,107.693152 457.937549,110.096888 449.279312,112.477263 L452.45968,111.654706 C436.169242,115.686343 420.08333,119.82495 403.751986,123.827078 C387.175213,127.884535 370.710929,132.023141 353.694426,135.855594 C320.921896,143.207572 286.823047,149.760845 251.626089,155.471556 C236.37873,157.957671 220.875714,160.237224 205.607902,162.741782 C194.359012,164.58608 182.874918,166.397182 172.341867,168.765261 C164.048367,170.60956 156.532063,172.852227 151.480289,175.917452 C146.643266,178.86833 144.465072,182.213888 142.757286,185.541003 C140.241625,190.450526 138.830401,195.426444 136.877184,200.369165 C134.228582,207.049215 131.33455,213.718199 127.264497,220.306034 C122.672904,227.723804 116.905292,235.041981 111.127453,242.349093 C104.480381,250.751718 97.9048937,259.150655 92.3009013,267.652872 C84.9073127,278.851454 78.1272999,290.116431 72.4619498,301.447803 C70.8550791,304.239827 69.6603333,307.060657 68.8827575,309.898379 C68.3782619,312.023012 67.91808,314.148873 67.502212,316.275965 C65.6921633,327.983573 69.2304505,339.702247 71.5415861,351.365593 L71.4086447,349.598754 C71.681345,353.090627 71.681345,356.584958 71.4086447,360.081749 C71.2450244,363.450668 71.1393531,366.819587 71.0916305,370.188506 C71.0916305,370.763927 71.8790528,371.221313 73.5970651,371.118032 C75.611639,371.011063 75.8161643,370.158997 75.8775219,369.576199 Z" id="Path" fill="#000000" opacity="0.11"></path>
                <path d="M73.8036947,368.798246 L71.6095073,362.824338 C71.1060349,360.609045 70.6093661,358.393751 70.1195011,356.178458 C69.2826482,352.441996 68.5274396,348.703073 67.8538751,344.961689 L68.1600408,346.90007 C67.6973904,343.874964 67.3912247,340.847396 67.2415438,337.817367 C67.0918628,334.787338 67.214329,331.793 67.6089426,328.834352 L65.9046203,339.578526 L67.8742861,328.922964 L65.1494117,341.871354 L66.2414026,337.887518 L64.8330405,342.528558 C65.5134086,340.313265 66.4625222,338.097971 67.6803812,335.882678 C68.966277,333.202173 70.4154612,330.535205 72.0279338,327.881776 L70.5685441,330.193066 L75.4467838,322.568764 L73.8955444,324.909591 C77.0082287,320.54177 80.2433793,316.214564 84.0398336,311.920587 C87.7342328,307.72999 91.8368528,303.591083 96.1435832,299.47433 C104.614167,291.351587 113.829754,283.339609 124.137331,275.515931 C133.49661,268.347324 143.886432,261.360827 155.264175,254.5851 C168.18087,246.990145 182.283974,239.667795 197.504832,232.653694 C211.129204,226.351185 225.570018,220.296049 240.63337,214.44029 C258.064402,207.6578 276.556808,201.214988 295.304353,194.912478 C334.707875,181.661331 376.79545,169.506754 417.770622,156.905427 C436.67125,151.093973 455.408589,145.212369 473.451952,139.050161 C482.330757,136.022594 491.015656,132.924875 499.87405,129.886231 C506.283118,127.670937 512.641158,125.455644 518.876733,123.199737 C524.642853,121.102592 530.34774,118.979603 535.909749,116.808615 C543.93129,113.681359 551.575226,110.465491 559.178341,107.20901 C564.315147,105.182222 569.123194,103.049508 573.578333,100.821581 C579.660824,97.9318533 585.338496,94.9387457 590.61135,91.8422577 C603.347842,84.8862362 615.934653,77.8908318 628.371783,70.8560443 C635.515648,66.8242102 643.139173,62.7333016 648.782827,58.3765578 C652.776838,55.2894801 655.977836,52.0760865 658.345402,48.7769528 C661.494614,44.5686719 662.837008,40.2102597 662.325556,35.8544076 C661.717231,31.0508226 659.09156,26.3087139 654.538742,21.7909863 C651.668499,19.0614942 648.324637,16.4003068 644.527124,13.8233142 L639.424363,10.500374 C635.861938,8.16532228 631.765424,5.94226567 627.177736,3.85449358 C625.244419,5.46197033 624.32409,7.2049493 624.483478,8.95705285 C623.4153,13.5131731 622.503607,18.0668319 621.748398,22.6180292 C620.687024,28.3187177 619.748116,34.0206369 618.931674,39.7237869 C618.044161,43.6718577 617.747768,47.63441 618.043794,51.5940677 C618.90186,53.6734214 619.419841,55.7692895 619.595033,57.8707325 C619.984158,59.8370164 620.014841,61.8104385 619.686883,63.7781817 L620.870724,59.6946574 L618.55407,67.4887983 L624.748822,54.8911628 L614.135079,73.8836121 L623.217994,61.2195178 L614.522889,72.4252105 L651.915923,31.7819598 L598.530835,86.2892554 L653.997849,43.6485485 L577.793213,97.609405 L645.027195,57.3649071 L569.02667,100.710816 L620.431886,72.5876654 L596.346853,85.4659047 L629.708706,68.0721589 L579.977195,93.1788181 L614.165695,76.2244388 C595.663083,84.9600794 575.558204,93.2083553 555.147159,101.349559 L562.811507,98.3478362 C554.960058,101.424633 546.904499,104.427586 538.644829,107.356696 C530.38516,110.285807 521.941791,113.161996 513.314723,115.985264 C495.761224,121.752412 477.666833,127.294337 459.307098,132.714422 C427.292374,142.173725 394.461209,151.267505 362.262786,160.649273 C327.421132,170.799009 293.57962,181.377035 261.983322,192.841179 C233.057219,203.281886 206.230038,214.456956 181.706683,226.281034 C133.240657,249.777913 94.888304,276.187903 75.0283574,304.709806 C71.5584797,309.694217 68.2723015,314.734009 66.2720191,319.847645 C65.2786816,322.830907 64.3703901,325.81663 63.5471446,328.804815 C62.4721629,333.117253 61.5604696,337.434614 60.8120646,341.756897 C59.8731566,347.184366 59.2097976,352.611835 59.4343191,358.050381 C59.6996627,364.190436 60.6487763,370.330491 61.4754236,376.463162 L61.2304911,374.561701 C61.6046935,377.894487 62.0469328,381.226043 62.557209,384.556367 C63.1452901,385.08039 63.9581077,385.567585 64.9657123,386 C66.6494123,385.485815 67.5926003,384.721794 67.5272984,383.925008 L71.9258785,377.105597 L76.8347348,371.268298 C77.3064391,370.632942 77.5263525,369.976569 77.4878883,369.31884 C77.5600806,369.016311 77.0745214,368.732543 76.2938421,368.621023 C75.9060323,368.543488 73.6710229,368.440107 73.8036947,368.798246 Z" id="Path" fill="#000000" opacity="0.11"></path>
                <path d="M75.8693413,372.228116 C74.5317567,367.132703 72.601959,362.063136 71.2133216,356.967723 C69.6000516,351.059998 68.0684661,345.096888 67.5681482,339.144856 C66.9200037,333.111671 67.6748375,327.069461 69.8246841,321.081986 C72.4692216,314.199487 77.513243,307.390834 83.323057,300.774181 C90.2456947,292.931432 98.9651108,285.311132 109.390641,277.992517 C121.786272,269.263853 136.765178,261.089039 150.95787,252.740685 C161.270545,246.677882 171.372202,240.573233 181.26284,234.426737 C195.217285,225.784228 209.375941,217.187257 223.738809,208.635825 L208.137059,217.357104 C213.854978,214.617397 219.760091,211.931843 225.852397,209.300444 C232.693479,206.371197 239.684315,203.48872 246.824907,200.653012 C260.445807,195.247443 274.546603,189.99326 289.351929,185.008617 C316.818361,175.777797 346.316696,167.344519 376.366402,159.228782 C412.103396,149.584421 448.657235,140.397909 483.699909,130.428623 C496.97365,126.651371 510.196337,122.840888 522.765548,118.746096 C539.777482,113.174955 555.973088,107.286285 571.286175,101.104153 C587.684349,94.5244239 603.959997,87.8597716 618.755112,80.7963479 C632.51896,74.1907728 645.302593,67.0498102 652.204938,59.0965354 C657.896412,52.5155618 659.318425,45.548876 656.36064,38.737038 C655.415163,36.5751027 654.109233,34.4358064 652.449992,32.3308487 C650.398097,30.0739539 647.928362,27.8695729 645.05754,25.7326583 C641.987562,23.3744914 638.658916,21.063094 635.071603,18.7984661 C631.344695,16.2683665 627.005257,13.8626412 622.104179,11.6095032 C620.419435,10.7602677 589.869411,21.948022 590.451414,21.7338669 C582.493976,24.5351132 574.703312,27.3966675 567.07942,30.3185298 C564.601467,30.9915671 562.832868,31.9502521 562.06603,33.0360834 C563.064658,36.5487058 563.426205,40.0812044 563.148351,43.6109112 C562.882876,44.9401493 562.790981,46.2767721 562.882876,47.6097025 C563.229889,48.6990772 563.332329,49.7968262 563.189193,50.8921822 C562.678665,54.5845104 558.737385,57.955606 553.193045,61.0091614 C546.311122,64.8011824 537.877191,68.1759703 529.208418,71.425219 C522.898286,73.7846167 516.404363,76.0775525 509.961494,78.3889499 C503.518625,80.7003473 497.433125,83.0117447 490.796255,85.1939107 C487.263398,86.3360708 483.802015,87.5053081 480.412106,88.7016224 C475.476997,90.3557854 470.606556,92.0357947 465.800781,93.7416503 C461.389815,95.3711978 457.17285,97.0622841 453.149885,98.8149092 L440.897202,104.423556 C432.728746,108.115884 423.968078,111.58298 414.809197,114.96146 C400.943243,120.082719 386.811815,125.104286 373.2726,130.343699 C348.978591,139.755401 326.318854,149.701858 305.423365,160.126018 C293.344262,166.148205 281.939055,172.336547 270.799324,178.587659 C256.718949,186.548318 242.93468,194.579132 229.160622,202.609946 L233.244849,200.239471 L185.755491,226.085768 L189.666139,224.036526 C175.810396,231.24395 162.169075,238.473529 149.507969,245.968955 C140.226561,251.463139 131.128944,256.98317 122.439749,262.617662 C111.701652,269.527716 102.07413,276.65589 93.6051005,283.966704 C86.4379439,290.269166 80.3010269,296.718469 75.2260754,303.281272 C70.8457411,308.915765 67.1393043,314.583489 65.4341392,320.413675 C63.8756791,326.312749 63.5514224,332.245961 64.4641351,338.162696 C65.2095067,344.125806 66.8534084,350.06307 68.2114141,356.01141 C69.4775247,361.549903 69.9982638,367.088395 70.9784785,372.626887 C71.0703736,373.132736 72.5406956,373.365353 73.8476485,373.335235 C75.1546014,373.298891 75.9510258,372.674887 75.8693413,372.228116 Z" id="Path" fill="#000000" opacity="0.11"></path>
                <path d="M79.5247324,366.900647 C79.9247217,365.262266 79.8905592,363.613817 79.4227107,361.977785 C78.4909127,359.145756 77.6951436,356.308811 77.0354034,353.466949 C75.4846738,347.533701 73.6992944,341.604141 72.5668538,335.656144 C71.730276,331.231099 71.1895611,326.747053 71.3732001,322.292508 C71.4581467,318.228563 72.3103071,314.17145 73.9237421,310.149448 C75.2572771,306.912748 77.0484016,303.702847 79.2900825,300.53235 C88.0983472,287.698984 100.72039,275.247537 116.936083,263.395162 C130.366063,253.538293 145.849967,244.064749 163.253925,235.056438 C174.874195,229.016251 187.371851,223.256318 200.236784,217.54801 L198.798279,218.167517 C208.398519,214.111226 218.131387,210.088122 228.251938,206.186708 C239.79059,201.739538 251.849553,197.465682 264.194176,193.30614 C287.189863,185.562312 311.471022,178.408489 336.190876,171.398481 L333.956601,172.021674 C362.522671,164.089782 391.588648,156.434454 420.389368,148.62425 C449.812421,140.648107 479.082441,132.491274 506.271219,123.519496 C523.880161,117.707937 540.560705,111.54975 557.210644,105.384187 C571.977919,99.9617121 585.885258,94.2418199 598.866096,88.2518889 C603.251134,86.2535938 607.33782,84.1720884 611.108697,82.0162633 C615.706474,79.6857397 619.991385,77.2851529 623.963429,74.8145028 C632.125163,69.8990156 640.011439,64.8913399 646.938711,59.7398502 C654.080229,54.4113588 659.640411,48.6772382 661.619631,42.7771785 C663.660065,36.6558665 661.711451,30.5529923 657.375529,24.6160571 C655.51025,22.2233361 653.122239,19.8879307 650.234012,17.6318614 C644.571808,13.0224398 637.593526,8.68958341 630.288773,4.40466503 C629.748058,3.7003454 629.033907,3.66715757 628.146318,4.33460182 C626.802248,5.85140735 626.026779,7.42649088 625.840628,9.01777423 C624.902029,12.0415548 624.130064,15.0714814 623.524736,18.1075538 C622.902075,19.6844779 622.871189,21.2845661 623.432916,22.8644769 C627.595401,27.3595849 631.737481,31.862068 634.145193,36.5378653 C635.787318,39.7159923 636.95207,42.9239301 637.634334,46.1475876 C638.310735,48.6646692 638.457388,51.1966812 638.073027,53.7217893 C637.429971,56.4824615 636.226272,59.2223109 634.471662,61.9191848 L635.92037,59.96479 L632.421026,64.5299612 L633.99216,62.5903166 C631.625257,65.2269058 629.0033,67.7123059 625.932448,70.2530192 L630.860095,66.5175438 L622.514721,72.7494819 L627.615805,69.0619446 L620.15802,74.0548702 L636.0632,63.9362677 L627.54439,69.1983835 L633.533063,65.8095367 L622.728967,71.8460353 L628.748246,68.5014389 C617.599717,74.3084309 605.612563,79.8991094 592.836614,85.2502335 C585.606678,88.3035144 578.288323,91.3285242 570.881549,94.3252629 C559.332695,98.9826225 547.355349,103.46298 535.082141,107.869587 L538.499868,106.674825 L522.635496,112.150818 L526.002212,110.996619 C509.097219,116.605363 491.886162,122.059231 474.144592,127.33241 C456.403021,132.605588 438.171747,137.779203 419.960877,142.897505 C387.579196,151.998347 354.901652,160.966438 323.387155,170.469221 C266.724313,187.542519 214.28517,206.640275 170.732115,228.212368 C127.179059,249.784462 92.4508793,274.015269 74.8725438,300.049283 C71.6800002,304.548302 69.4257963,309.127553 68.1289107,313.748484 C67.1516288,317.953471 66.8110484,322.174624 67.1086939,326.39305 C67.4351633,332.35211 68.8022538,338.29642 70.3631855,344.222293 C71.1997633,347.172323 71.9921317,350.134644 72.7402906,353.109258 C74.1005797,357.605595 74.8963488,362.116682 75.127598,366.64252 C75.127598,366.981773 77.3312663,367.19565 77.9638007,367.250963 C78.7697719,367.321027 79.5247324,367.273089 79.5247324,366.900647 Z" id="Path" fill="#000000" opacity="0.11"></path>
                <path d="M77.5960312,371.228194 C75.8894093,362.83016 73.753577,354.450583 71.5973061,346.063622 C69.9826578,339.740179 68.5315181,333.427811 67.7650712,327.082219 L67.9081413,329.226948 C67.6765039,326.925948 67.6390332,324.626178 67.795729,322.327639 C67.795729,320.068476 68.0546178,317.813004 68.5723953,315.561223 L68.2045008,316.838463 C68.885787,313.932066 69.9485935,311.047818 71.3929202,308.185718 C72.8849371,305.365455 74.5881526,302.56365 76.5025668,299.780301 C78.2807239,296.992031 80.2905182,294.22837 82.5319498,291.489319 C85.4682934,287.849555 88.7180287,284.246706 92.2811556,280.680771 L91.667998,281.286168 C96.3484343,276.900733 101.18216,272.552212 106.618824,268.27752 C110.951804,264.864165 115.567518,261.502491 120.465966,258.192496 C131.530039,250.729847 143.861004,243.521468 157.388273,236.608625 C184.765759,222.581139 216.609077,209.823509 250.843709,197.970283 C285.875446,185.840199 324.095603,174.972589 363.255934,164.66977 C386.331098,158.604728 409.866131,152.768555 433.074145,146.773651 C442.496334,144.337298 451.938961,141.912019 461.228298,139.412912 C472.745442,136.31579 483.966226,133.085777 495.054159,129.793009 C515.022658,123.860859 534.613043,117.714606 552.793165,111.070007 C567.529386,105.687882 581.560476,100.062122 595.346302,94.3625326 C614.17024,86.5846607 632.912424,78.5631535 646.677812,69.4526704 C652.689527,65.5992957 657.305569,61.4828516 660.412542,57.2044602 C666.495611,48.156871 664.711418,38.6519076 655.302895,29.9837542 C648.067636,23.6603111 637.879001,17.8241386 627.526857,12.1245495 C623.644729,12.0514004 619.781405,12.3642117 616.357169,13.0289532 C603.031211,14.8106901 589.787007,16.6674863 576.624557,18.5993418 C563.42123,20.489361 550.299658,22.458131 537.25984,24.5056517 C533.507746,24.8766427 530.112556,25.6150502 527.449318,26.6393062 C530.954536,29.99852 534.316683,33.3577338 536.932822,36.820308 C538.976681,39.5187533 540.182558,42.2799532 541.889179,45.0042387 C543.248345,47.1932648 544.556415,49.2678562 544.658608,51.5233283 C544.759615,53.4643077 544.116512,55.4009987 542.7476,57.2782891 C539.681812,61.2761226 534.07142,65.0081722 527.776336,68.4522892 C520.056375,72.5584773 511.761139,76.5196293 502.923014,80.3202807 C497.077579,82.9042913 491.150389,85.4624618 485.243637,88.0243238 C478.519342,90.9368729 472.030091,93.9306337 464.805051,96.6844507 C456.690932,99.7889549 448.024971,102.697813 439.256818,105.543916 C428.332393,109.124616 417.029855,112.557659 405.53315,115.902107 C383.909126,122.177561 360.925935,127.862384 337.493096,133.214978 C317.442843,137.792368 296.452415,141.904636 278.139441,147.393813 C267.613569,150.546306 257.6191,153.920286 247.818798,157.360711 C237.027225,161.159207 226.358282,165.002 216.047016,168.973993 C197.28796,176.149536 179.698204,183.712497 163.366559,191.624692 C147.346352,199.435977 132.997778,207.677002 120.445528,216.276153 C106.567727,225.80746 95.7659345,235.888793 87.171509,246.176847 C84.0239666,249.942119 81.3260732,253.77753 78.7099342,257.594482 C74.9185764,263.131648 71.8323499,268.738951 69.2877458,274.357328 C67.9728635,277.244037 66.8180833,280.14059 65.8234054,283.046987 C64.8287276,285.953383 63.8067983,288.899156 62.7576175,291.884303 C61.3580319,297.347176 60.7542609,302.832844 60.9488026,308.31861 C61.2247235,318.477464 62.7371789,328.621551 65.1080549,338.754564 C67.6628782,349.622174 70.7388855,360.463944 72.9360335,371.338938 C73.058665,371.922186 73.0791036,373.409837 75.7156813,373.335235 C78.3522589,373.254797 77.7084434,371.811442 77.5960312,371.228194 Z" id="Path" fill="#C53849" opacity="0"></path>
                <path d="M74.3907481,370.519239 L79.3797885,367.294661 L77.6826969,367.663606 L93.5188108,369.464057 L91.4741221,369.117249 C115.345863,374.758415 107.565822,374.987161 124.39361,374.987161 L124.086907,374.271408 C123.195875,371.903902 121.849953,369.561607 120.05887,367.261456 C118.695744,365.409353 117.608651,363.540032 116.797592,361.653494 C114.886612,357.549702 113.596547,353.411388 112.93313,349.256947 L113.035364,350.068626 L112.677544,345.770418 L112.749108,346.600544 C112.851342,344.279881 112.90246,341.955528 113.331844,339.642244 L114.640445,334.805377 C115.185695,332.419533 115.91156,330.039839 116.818038,327.666294 C119.455687,320.287397 124.046013,313.096661 128.329636,305.843205 L127.787793,306.758189 C135.179343,294.317368 141.957486,281.780622 154.286959,269.823119 C166.616431,257.865616 183.147739,246.579593 202.255355,235.920776 C222.17346,224.898475 244.522818,214.473953 269.086005,204.748625 C283.289776,199.079172 297.919523,193.559757 312.975248,188.19038 C330.672028,181.877733 348.920875,175.782764 367.159498,169.676727 L359.543033,172.222446 L379.223161,165.725327 L371.453344,168.278426 C392.288722,161.467704 413.216111,154.697566 433.867467,147.813055 C445.481298,143.946512 456.675969,139.917635 467.870639,135.896136 C491.282325,127.494031 514.581553,119.052573 537.768322,110.571761 L553.829352,104.192704 C568.994126,98.0780579 583.98851,91.9043806 598.812503,85.6716722 C607.553547,81.9822236 616.192357,78.3370484 624.095079,74.4040962 C628.542277,72.1719798 632.641877,69.9066584 636.59835,67.5527902 C641.173144,64.9387779 645.225107,62.2102623 648.723354,59.3880405 C652.504688,56.288305 655.558581,53.0795249 657.852889,49.7954742 C660.626353,45.5326561 661.519949,41.1386796 660.500761,36.7754102 C659.492774,31.9102315 656.388439,27.1315463 651.299662,22.6116171 C648.024128,19.8335509 644.320874,17.1237287 640.207226,14.4948302 C638.523765,13.3265049 636.697177,12.1852354 634.72746,11.071022 C631.954987,9.31472997 628.810428,7.63841538 625.321892,6.05706134 C623.297523,7.65100571 622.284627,9.38792791 622.357093,11.1411215 C621.041677,15.6914414 619.88302,20.2417613 618.881123,24.7920812 C617.517997,30.4812109 616.270737,36.1764897 615.139342,41.8779176 C614.044177,45.8191013 613.535682,49.7786501 613.616049,53.7394947 C613.920985,56.44515 613.815185,59.1548013 613.299122,61.8562816 L614.433925,57.845851 L612.072309,65.6564136 L637.81494,21.3830307 L594.641338,82.2478639 L624.943625,59.0891952 L592.504638,82.8381757 L639.021306,53.3557921 L570.524235,95.1830706 L590.52129,84.321334 L572.272444,93.7441857 L627.714178,66.4201295 L557.744931,100.363056 L594.273294,83.7900534 L546.908081,104.930594 L584.244096,88.7486723 L537.829663,108.228961 L583.221752,90.0510476 L489.27853,126.347843 L535.815645,109.191907 L511.657648,118.005999 L528.178732,112.202497 C515.603897,116.537599 502.865486,120.758328 489.861266,124.923716 L498.040021,122.341102 C480.026314,127.931846 461.75702,133.406988 443.232141,138.766527 C424.768602,144.101469 406.100594,149.351555 387.555268,154.631156 C355.995498,163.655547 324.660644,172.805379 295.063775,182.670965 C242.188125,200.295461 194.076601,219.997116 155.728464,242.026813 C145.873065,247.690117 136.579955,253.486241 128.125167,259.4447 C118.525045,266.260716 109.975448,273.262886 102.515441,280.419215 C96.8721003,285.794742 91.8421661,291.269884 87.5892136,296.807746 C84.753912,300.497194 82.2525761,304.213699 80.0852061,307.957259 C78.0405174,311.223651 76.4524759,314.519559 75.3210815,317.844982 C72.5607517,326.95792 74.6361108,336.218436 77.6315797,345.2871 C78.4699021,347.958261 79.4240901,350.625732 80.4941439,353.289514 C82.6212508,355.646821 82.5494307,358.190724 80.289675,360.531902 C75.4388152,361.823614 72.7422806,363.917231 73.1332646,366.088211 C73.1332646,367.519717 73.1332646,368.951223 73.1332646,370.382729 C73.028809,370.508043 73.2256282,370.640189 73.5728727,370.677885 C73.9201171,370.715581 74.2862924,370.644553 74.3907481,370.519239 L74.3907481,370.519239 Z" id="Path" fill="#000000" opacity="0.11"></path>
                <path d="M78.5645133,371.580759 C76.7982543,366.977515 74.7154981,362.436976 72.3672925,357.870617 C70.1007636,353.466552 67.7321389,349.066176 65.6800114,344.647357 C62.0045592,336.739221 59.0948262,328.753626 59.870755,320.716392 C59.9437581,318.583348 60.4007513,316.454279 61.23884,314.34267 C61.9289789,312.001165 63.0925775,309.68105 64.72031,307.40092 C67.5653823,302.868987 70.9107244,298.388693 74.7563364,293.960038 C84.0470628,283.237579 97.0132414,272.876592 111.847775,263.013553 C141.32286,243.401817 179.302532,225.53474 221.529394,209.301667 C241.948573,201.44148 263.490807,193.972275 285.849808,186.823969 C310.975608,178.786735 337.408235,171.280645 364.341132,164.047503 C390.069297,157.13526 416.175217,150.400066 441.934012,143.513643 C456.053874,139.732934 470.143107,135.930094 483.793328,131.935452 C495.003458,128.662526 506.036621,125.31829 516.892817,121.902742 C529.967898,117.781462 542.620983,113.496658 554.852071,109.048331 C565.776332,105.086886 576.149275,100.933639 586.399702,96.7398186 C600.182648,91.103796 613.965594,85.4235114 626.411084,79.4038851 C636.151032,74.6752325 645.227357,69.7805977 652.302602,64.4580972 C658.736914,59.667914 662.94177,54.5273305 664.748092,49.2430491 C665.662135,46.3024963 665.716887,43.3353517 664.911445,40.3906575 C664.551369,38.8246517 663.913663,37.2686009 663.002252,35.7320864 C662.231913,34.1061947 661.18861,32.498732 659.878118,30.9185985 C653.088741,23.5748019 641.255827,16.9023118 629.565847,10.4621969 C626.1769,11.0831298 623.344797,12.0385202 621.398175,13.2175038 C612.72683,17.0978021 604.218839,21.0321983 595.874201,25.0206926 C587.529564,29.0091868 557.820934,16.5957654 549.680488,20.6113086 C547.054157,21.5961409 566.715593,39.2439513 565.939685,40.5824593 C567.724307,43.844831 568.921341,47.145587 569.523251,50.4639415 C569.860168,53.1159705 569.523251,55.7606225 569.165915,58.4089629 C569.104281,60.4816545 568.419626,62.545795 567.123998,64.5650636 C565.940045,66.1871206 564.396823,67.7721389 562.509263,69.3047816 C557.965996,72.9932781 551.666679,76.3682524 545.091703,79.6325718 C536.188941,84.0587677 526.193753,88.2157032 516.229194,92.3357538 C510.225956,94.818112 504.161459,97.2820276 498.117382,99.7496318 L491.593455,102.416415 C486.992333,104.312302 482.370792,106.202042 477.728832,108.085634 C469.734724,111.110201 461.219926,113.942966 452.654081,116.746224 C440.994729,120.562588 429.083542,124.265839 416.920517,127.855975 C395.010738,134.314533 372.202516,140.352601 348.71025,146.043951 C324.023463,152.023004 297.98901,157.271735 274.10878,163.68603 C261.450158,167.023416 249.407882,170.655697 238.05872,174.559718 C228.727155,177.835103 219.681459,181.199012 210.69702,184.610871 C190.829159,192.132945 171.744033,199.900918 153.441642,207.914792 C133.815403,216.528644 115.483232,225.516918 98.5242607,234.840816 C82.3931093,243.726404 67.3645937,252.969777 55.0416192,262.622572 C44.4338557,270.929066 35.1941773,279.512198 28.9356989,288.383032 C26.1867152,292.289319 24.0899703,296.251759 22.6568014,300.248925 C21.2274947,303.253961 20.942388,306.315498 21.8094055,309.348446 L23.7492275,313.564397 C25.0365458,315.872891 26.6690689,318.154495 28.6396209,320.399181 C30.5113789,322.796704 32.6315703,325.163489 35.0001951,327.499537 C39.4992208,332.171633 44.0458913,336.836351 48.6402066,341.493693 C53.4999712,346.410459 58.6149755,351.294028 62.8417455,356.288252 L66.6703416,360.943135 C69.3267611,364.215836 71.4606763,367.540959 73.0615446,370.902075 C73.3167843,371.363138 74.3990008,372.134033 75.7670858,372.233951 C76.5532242,372.244688 78.7278667,371.975428 78.5645133,371.580759 Z" id="Path" fill="#C53849" opacity="0.124113653"></path>
                <path d="M77.219428,375.714903 C74.5205049,359.750593 66.9962345,343.867432 69.0408732,327.833038 C69.3204994,324.969242 70.2229137,322.11779 71.7397963,319.304968 C72.8644965,315.992949 74.6860759,312.716611 77.1887584,309.504328 C81.0664111,303.927279 85.7308533,298.425314 91.1638639,293.019924 C100.290934,284.029029 111.104842,275.272899 123.530494,266.81234 C138.461422,256.671014 155.529865,246.958595 174.585122,237.760836 C182.528544,233.902549 190.942232,230.162297 198.926546,226.326141 C209.773354,221.162085 221.550473,216.270986 233.685404,211.516366 C255.437514,203.07093 278.363547,195.02925 302.375041,187.422356 C329.517619,178.787317 357.835865,170.661306 386.389244,162.642265 C411.068033,155.715053 435.910394,148.861613 460.282487,141.797922 C484.65458,134.734231 508.863102,127.56357 531.609707,119.817486 C542.003288,116.276419 552.103803,112.627153 561.911253,108.869688 C570.999672,105.398704 579.720056,101.765422 588.399547,98.1727146 C600.514031,93.1414486 612.485391,88.0622307 623.424208,82.6805467 C632.74776,78.0992913 641.611269,73.2635217 647.959872,68.0478252 C653.951391,63.2751198 657.67352,58.1725658 658.970252,52.9540273 C659.98926,48.2545713 659.131979,43.5266682 656.424676,38.9151723 C654.175574,35.0605734 650.566787,31.2502378 646.784205,27.5690036 C639.188372,20.1659605 631.551647,12.766606 624.139831,5.34143128 C624.398171,5.00785501 623.978563,4.65435002 623.131138,4.49164279 C622.283713,4.32893556 621.236679,4.40084225 620.614179,4.66449886 C619.991679,4.92815546 619.961348,5.31256069 620.541267,5.58856824 C620.824735,6.86272945 621.330077,8.12919468 622.0543,9.38046077 C622.659202,10.6363279 623.485551,11.8769915 624.528313,13.0948925 L635.334228,20.8409764 L624.763446,10.3284339 C625.415517,12.3537385 625.756811,14.3904998 625.785766,16.4293972 C625.744873,18.1064858 625.864143,19.7823449 626.143577,21.4569745 C626.327595,23.2742304 626.668368,25.0927158 627.165897,26.9124308 C627.574824,29.204288 627.786104,31.4998338 627.799735,33.7990683 L627.799735,33.2125791 C627.756045,36.2961554 627.185873,39.3758317 626.092461,42.4341076 C625.12435,44.7846112 623.758708,47.1115509 622.003184,49.4018945 C618.428076,54.0732821 613.547004,58.601551 607.435133,62.9169667 C599.634837,68.4056205 590.16816,73.5770537 580.159653,78.5677449 C568.852801,84.2039432 557.014343,89.7073514 545.237224,95.2181368 C536.455501,99.3235613 527.234181,103.303573 517.971967,107.272519 C508.709754,111.241465 499.76446,115.147704 490.502247,119.039189 C470.413671,127.482421 449.517464,135.700647 427.762508,143.586898 C386.624378,158.503643 341.315185,171.764201 298.878708,186.175606 C279.526203,192.748711 260.643965,199.495181 242.456904,206.488789 C233.25603,210.01879 224.372075,213.637317 215.641467,217.307486 C207.299342,220.811667 198.640297,224.223632 190.369733,227.749945 C185.31266,230.012293 180.388489,232.311527 175.597219,234.647648 C170.805949,236.983769 166.069202,239.329725 161.38698,241.685519 C153.637799,245.711023 146.185091,249.805382 139.028856,253.968595 C125.005551,262.142901 112.508928,270.645578 101.622191,279.420013 C89.5613977,289.048005 79.899839,299.044243 72.7518924,309.290388 C70.5027899,312.588007 68.3354729,315.896692 66.8940026,319.249639 C65.646773,322.141511 64.9311494,325.051825 64.4404362,327.973205 C63.1932066,335.350428 64.5733377,342.760848 66.2499414,350.104874 C68.2127945,358.69565 71.1468511,367.24954 72.5985445,375.85507 C72.6598837,376.190734 74.5102817,376.069009 74.9703254,376.057944 C75.4303691,376.046878 77.2705439,376.054255 77.219428,375.714903 Z" id="Path" fill="#000000" opacity="0.11"></path>
            </g>
        </g>
    </g>
</svg>