<?xml version="1.0" encoding="UTF-8"?>
<svg width="182px" height="182px" viewBox="0 0 182 182" version="1.1" xmlns="http://www.w3.org/2000/svg" xmlns:xlink="http://www.w3.org/1999/xlink">
    <!-- Generator: Sketch 60.1 (88133) - https://sketch.com -->
    <title>Artboard</title>
    <desc>Created with Sketch.</desc>
    <g id="Artboard" stroke="none" stroke-width="1" fill="none" fill-rule="evenodd">
        <g id="noun_Structure_1337774" transform="translate(8.000000, 8.000000)" fill="#C53849" fill-rule="nonzero">
            <path d="M18.6,91.3 L34.7355,91.3 L34.7355,91.3 C34.7355,107.9 34.7355,107.9 58.1,107.9 L141.1,107.9 C166,107.9 166,107.9 166,83 C166,58.1 166,58.1 141.1,58.1 L58.1,58.1 C34.7355,58.1 34.7272,58.1 34.7272,74.7 L18.6,74.7 C17.4954305,74.7 16.6,73.8045695 16.6,72.7 L16.6,35.2 C16.6,34.0954305 17.4954305,33.2 18.6,33.2 L34.7355,33.2 L34.7355,33.2 C34.7355,49.8 34.7272,49.8 58.1,49.8 L141.1,49.8 C166,49.8 166,49.8 166,24.9 C166,0 166,0 141.1,0 L58.1,0 C34.7355,0 34.7272,0 34.7272,16.6 L18.6,16.6 C17.4954305,16.6 16.6,15.7045695 16.6,14.6 L16.6,2 C16.6,0.8954305 15.7045695,-2.02906125e-16 14.6,0 L2,0 C0.8954305,2.02906125e-16 7.52907669e-16,0.8954305 0,2 L0,147.4 C1.3527075e-16,148.504569 0.8954305,149.4 2,149.4 L34.7355,149.4 L34.7355,149.4 C34.7272,166 34.7355,166 58.1,166 L141.1,166 C166,166 166,166 166,141.1 C166,116.2 166,116.2 141.1,116.2 L58.1,116.2 C34.7355,116.2 34.7272,116.2 34.7272,132.8 L18.6,132.8 C17.4954305,132.8 16.6,131.904569 16.6,130.8 L16.6,93.3 C16.6,92.1954305 17.4954305,91.3 18.6,91.3 Z M58.1,74.7 L141.1,74.7 C149.4,74.7 149.4,74.7 149.4,83 C149.4,91.3 149.4,91.3 141.1,91.3 L58.1,91.3 C49.8,91.3 49.8,91.3 49.8,83 C49.8,74.7 49.8,74.7 58.1,74.7 Z M58.1,16.6 L141.1,16.6 C149.4,16.6 149.4,16.6 149.4,24.9 C149.4,33.2 149.4,33.2 141.1,33.2 L58.1,33.2 C49.8,33.2 49.8,33.2 49.8,24.9 C49.8,16.6 49.8,16.6 58.1,16.6 Z M58.1,132.8 L141.1,132.8 C149.4,132.8 149.4,132.8 149.4,141.1 C149.4,149.4 149.4,149.4 141.1,149.4 L58.1,149.4 C49.8,149.4 49.8,149.4 49.8,141.1 C49.8,132.8 49.8,132.8 58.1,132.8 Z" id="Shape"></path>
        </g>
    </g>
</svg>